<mxfile host="app.diagrams.net" modified="2022-09-19T14:04:24.382Z" agent="5.0 (Windows NT 10.0; Win64; x64) AppleWebKit/537.36 (KHTML, like Gecko) Chrome/105.0.0.0 Safari/537.36" etag="u1KTi3V7opuzq1pG1ZoL" version="20.3.2" type="github">
  <diagram id="XMzIL-5AGFkydlVCWrg7" name="Page-1">
    <mxGraphModel dx="950" dy="441" grid="1" gridSize="10" guides="1" tooltips="1" connect="1" arrows="1" fold="1" page="1" pageScale="1" pageWidth="850" pageHeight="1100" math="0" shadow="0">
      <root>
        <mxCell id="0" />
        <mxCell id="1" parent="0" />
        <mxCell id="b3iu7qkoFLW_3XjeTq-3-1" value="physical server" style="rounded=0;whiteSpace=wrap;html=1;" parent="1" vertex="1">
          <mxGeometry x="60" y="520" width="90" height="110" as="geometry" />
        </mxCell>
        <mxCell id="b3iu7qkoFLW_3XjeTq-3-2" value="virtual machines" style="rounded=0;whiteSpace=wrap;html=1;" parent="1" vertex="1">
          <mxGeometry x="190" y="410" width="120" height="60" as="geometry" />
        </mxCell>
        <mxCell id="b3iu7qkoFLW_3XjeTq-3-5" value="advance virtual machines" style="rounded=0;whiteSpace=wrap;html=1;" parent="1" vertex="1">
          <mxGeometry x="330" y="330" width="120" height="60" as="geometry" />
        </mxCell>
        <mxCell id="b3iu7qkoFLW_3XjeTq-3-6" value="cloud virtualization" style="whiteSpace=wrap;html=1;" parent="1" vertex="1">
          <mxGeometry x="450" y="260" width="120" height="60" as="geometry" />
        </mxCell>
        <mxCell id="b3iu7qkoFLW_3XjeTq-3-7" value="containeration&amp;nbsp;&lt;br&gt;" style="whiteSpace=wrap;html=1;" parent="1" vertex="1">
          <mxGeometry x="580" y="180" width="120" height="60" as="geometry" />
        </mxCell>
        <mxCell id="QCNMNIQBk-sfIVYiamI_-2" value="" style="shape=link;html=1;rounded=0;" parent="1" edge="1">
          <mxGeometry width="100" relative="1" as="geometry">
            <mxPoint x="70" y="680" as="sourcePoint" />
            <mxPoint x="740" y="680" as="targetPoint" />
          </mxGeometry>
        </mxCell>
        <mxCell id="QCNMNIQBk-sfIVYiamI_-3" value="conditional statement&amp;nbsp;" style="text;html=1;align=center;verticalAlign=middle;resizable=0;points=[];autosize=1;strokeColor=none;fillColor=none;" parent="1" vertex="1">
          <mxGeometry x="80" y="735" width="140" height="30" as="geometry" />
        </mxCell>
        <mxCell id="QCNMNIQBk-sfIVYiamI_-4" value="using - If&amp;nbsp;" style="text;html=1;align=center;verticalAlign=middle;resizable=0;points=[];autosize=1;strokeColor=none;fillColor=none;" parent="1" vertex="1">
          <mxGeometry x="125" y="755" width="70" height="30" as="geometry" />
        </mxCell>
        <mxCell id="QCNMNIQBk-sfIVYiamI_-9" style="edgeStyle=orthogonalEdgeStyle;rounded=0;orthogonalLoop=1;jettySize=auto;html=1;exitX=1;exitY=0.5;exitDx=0;exitDy=0;" parent="1" source="QCNMNIQBk-sfIVYiamI_-5" target="QCNMNIQBk-sfIVYiamI_-7" edge="1">
          <mxGeometry relative="1" as="geometry" />
        </mxCell>
        <mxCell id="QCNMNIQBk-sfIVYiamI_-10" style="edgeStyle=orthogonalEdgeStyle;rounded=0;orthogonalLoop=1;jettySize=auto;html=1;exitX=0.5;exitY=1;exitDx=0;exitDy=0;entryX=0.5;entryY=0;entryDx=0;entryDy=0;" parent="1" source="QCNMNIQBk-sfIVYiamI_-5" target="QCNMNIQBk-sfIVYiamI_-6" edge="1">
          <mxGeometry relative="1" as="geometry" />
        </mxCell>
        <mxCell id="QCNMNIQBk-sfIVYiamI_-5" value="If condition" style="rhombus;whiteSpace=wrap;html=1;" parent="1" vertex="1">
          <mxGeometry x="240" y="765" width="80" height="80" as="geometry" />
        </mxCell>
        <mxCell id="QCNMNIQBk-sfIVYiamI_-6" value="execute something" style="whiteSpace=wrap;html=1;" parent="1" vertex="1">
          <mxGeometry x="220" y="875" width="120" height="60" as="geometry" />
        </mxCell>
        <mxCell id="QCNMNIQBk-sfIVYiamI_-7" value="execute something" style="whiteSpace=wrap;html=1;" parent="1" vertex="1">
          <mxGeometry x="375" y="775" width="120" height="60" as="geometry" />
        </mxCell>
        <mxCell id="QCNMNIQBk-sfIVYiamI_-11" value="Yes" style="text;html=1;align=center;verticalAlign=middle;resizable=0;points=[];autosize=1;strokeColor=none;fillColor=none;" parent="1" vertex="1">
          <mxGeometry x="320" y="780" width="40" height="30" as="geometry" />
        </mxCell>
        <mxCell id="QCNMNIQBk-sfIVYiamI_-12" value="No" style="text;html=1;align=center;verticalAlign=middle;resizable=0;points=[];autosize=1;strokeColor=none;fillColor=none;" parent="1" vertex="1">
          <mxGeometry x="280" y="835" width="40" height="30" as="geometry" />
        </mxCell>
        <mxCell id="QCNMNIQBk-sfIVYiamI_-13" value="eq, not eq, geq, le eq&lt;br&gt;&lt;br&gt;" style="text;html=1;align=center;verticalAlign=middle;resizable=0;points=[];autosize=1;strokeColor=none;fillColor=none;" parent="1" vertex="1">
          <mxGeometry x="520" y="765" width="140" height="40" as="geometry" />
        </mxCell>
        <mxCell id="QCNMNIQBk-sfIVYiamI_-14" value="==, !=. &amp;gt;=, &amp;lt;=" style="text;html=1;align=center;verticalAlign=middle;resizable=0;points=[];autosize=1;strokeColor=none;fillColor=none;" parent="1" vertex="1">
          <mxGeometry x="530" y="805" width="100" height="30" as="geometry" />
        </mxCell>
        <mxCell id="QCNMNIQBk-sfIVYiamI_-15" value="help to compare &lt;br&gt;=&lt;br&gt;spl char - symbols, regex&lt;br&gt;&amp;nbsp;space ,null,data types ,string, number, boolean, &lt;br&gt;char, file, folder, device, execution status" style="text;html=1;align=center;verticalAlign=middle;resizable=0;points=[];autosize=1;strokeColor=none;fillColor=none;" parent="1" vertex="1">
          <mxGeometry x="390" y="845" width="280" height="90" as="geometry" />
        </mxCell>
        <mxCell id="QCNMNIQBk-sfIVYiamI_-16" value="" style="shape=link;html=1;rounded=0;" parent="1" edge="1">
          <mxGeometry width="100" relative="1" as="geometry">
            <mxPoint x="80" y="980" as="sourcePoint" />
            <mxPoint x="750" y="980" as="targetPoint" />
          </mxGeometry>
        </mxCell>
        <mxCell id="QCNMNIQBk-sfIVYiamI_-17" style="edgeStyle=orthogonalEdgeStyle;rounded=0;orthogonalLoop=1;jettySize=auto;html=1;exitX=1;exitY=0.5;exitDx=0;exitDy=0;" parent="1" source="QCNMNIQBk-sfIVYiamI_-19" edge="1">
          <mxGeometry relative="1" as="geometry">
            <mxPoint x="375" y="1070" as="targetPoint" />
          </mxGeometry>
        </mxCell>
        <mxCell id="QCNMNIQBk-sfIVYiamI_-18" style="edgeStyle=orthogonalEdgeStyle;rounded=0;orthogonalLoop=1;jettySize=auto;html=1;exitX=0.5;exitY=1;exitDx=0;exitDy=0;entryX=0.5;entryY=0;entryDx=0;entryDy=0;" parent="1" source="QCNMNIQBk-sfIVYiamI_-19" target="QCNMNIQBk-sfIVYiamI_-20" edge="1">
          <mxGeometry relative="1" as="geometry" />
        </mxCell>
        <mxCell id="QCNMNIQBk-sfIVYiamI_-19" value="If condition" style="rhombus;whiteSpace=wrap;html=1;" parent="1" vertex="1">
          <mxGeometry x="240" y="1030" width="80" height="80" as="geometry" />
        </mxCell>
        <mxCell id="QCNMNIQBk-sfIVYiamI_-20" value="execute something" style="whiteSpace=wrap;html=1;" parent="1" vertex="1">
          <mxGeometry x="220" y="1140" width="120" height="60" as="geometry" />
        </mxCell>
        <mxCell id="QCNMNIQBk-sfIVYiamI_-21" value="Yes" style="text;html=1;align=center;verticalAlign=middle;resizable=0;points=[];autosize=1;strokeColor=none;fillColor=none;" parent="1" vertex="1">
          <mxGeometry x="320" y="1045" width="40" height="30" as="geometry" />
        </mxCell>
        <mxCell id="QCNMNIQBk-sfIVYiamI_-22" value="else" style="text;html=1;align=center;verticalAlign=middle;resizable=0;points=[];autosize=1;strokeColor=none;fillColor=none;" parent="1" vertex="1">
          <mxGeometry x="275" y="1100" width="50" height="30" as="geometry" />
        </mxCell>
        <mxCell id="QCNMNIQBk-sfIVYiamI_-23" value="execute something" style="whiteSpace=wrap;html=1;" parent="1" vertex="1">
          <mxGeometry x="375" y="1030" width="120" height="60" as="geometry" />
        </mxCell>
        <mxCell id="QCNMNIQBk-sfIVYiamI_-24" style="edgeStyle=orthogonalEdgeStyle;rounded=0;orthogonalLoop=1;jettySize=auto;html=1;exitX=1;exitY=0.5;exitDx=0;exitDy=0;" parent="1" source="QCNMNIQBk-sfIVYiamI_-26" edge="1">
          <mxGeometry relative="1" as="geometry">
            <mxPoint x="375" y="1260" as="targetPoint" />
          </mxGeometry>
        </mxCell>
        <mxCell id="QCNMNIQBk-sfIVYiamI_-25" style="edgeStyle=orthogonalEdgeStyle;rounded=0;orthogonalLoop=1;jettySize=auto;html=1;exitX=0.5;exitY=1;exitDx=0;exitDy=0;entryX=0.5;entryY=0;entryDx=0;entryDy=0;" parent="1" source="QCNMNIQBk-sfIVYiamI_-26" edge="1">
          <mxGeometry relative="1" as="geometry">
            <mxPoint x="280" y="1330" as="targetPoint" />
          </mxGeometry>
        </mxCell>
        <mxCell id="QCNMNIQBk-sfIVYiamI_-34" style="edgeStyle=orthogonalEdgeStyle;rounded=0;orthogonalLoop=1;jettySize=auto;html=1;exitX=0;exitY=0.5;exitDx=0;exitDy=0;entryX=0.5;entryY=0;entryDx=0;entryDy=0;" parent="1" source="QCNMNIQBk-sfIVYiamI_-26" target="QCNMNIQBk-sfIVYiamI_-32" edge="1">
          <mxGeometry relative="1" as="geometry" />
        </mxCell>
        <mxCell id="QCNMNIQBk-sfIVYiamI_-26" value="If condition" style="rhombus;whiteSpace=wrap;html=1;" parent="1" vertex="1">
          <mxGeometry x="240" y="1220" width="80" height="80" as="geometry" />
        </mxCell>
        <mxCell id="QCNMNIQBk-sfIVYiamI_-28" value="Yes" style="text;html=1;align=center;verticalAlign=middle;resizable=0;points=[];autosize=1;strokeColor=none;fillColor=none;" parent="1" vertex="1">
          <mxGeometry x="320" y="1235" width="40" height="30" as="geometry" />
        </mxCell>
        <mxCell id="QCNMNIQBk-sfIVYiamI_-29" value="elif" style="text;html=1;align=center;verticalAlign=middle;resizable=0;points=[];autosize=1;strokeColor=none;fillColor=none;" parent="1" vertex="1">
          <mxGeometry x="280" y="1290" width="40" height="30" as="geometry" />
        </mxCell>
        <mxCell id="QCNMNIQBk-sfIVYiamI_-30" value="execute something" style="whiteSpace=wrap;html=1;" parent="1" vertex="1">
          <mxGeometry x="375" y="1220" width="120" height="60" as="geometry" />
        </mxCell>
        <mxCell id="QCNMNIQBk-sfIVYiamI_-33" style="edgeStyle=orthogonalEdgeStyle;rounded=0;orthogonalLoop=1;jettySize=auto;html=1;entryX=0.5;entryY=1;entryDx=0;entryDy=0;" parent="1" source="QCNMNIQBk-sfIVYiamI_-31" target="QCNMNIQBk-sfIVYiamI_-32" edge="1">
          <mxGeometry relative="1" as="geometry" />
        </mxCell>
        <mxCell id="QCNMNIQBk-sfIVYiamI_-31" value="condition" style="rhombus;whiteSpace=wrap;html=1;" parent="1" vertex="1">
          <mxGeometry x="240" y="1330" width="80" height="80" as="geometry" />
        </mxCell>
        <mxCell id="QCNMNIQBk-sfIVYiamI_-32" value="execute some thing" style="whiteSpace=wrap;html=1;" parent="1" vertex="1">
          <mxGeometry x="70" y="1290" width="120" height="60" as="geometry" />
        </mxCell>
        <mxCell id="QCNMNIQBk-sfIVYiamI_-35" value="else" style="text;html=1;align=center;verticalAlign=middle;resizable=0;points=[];autosize=1;strokeColor=none;fillColor=none;" parent="1" vertex="1">
          <mxGeometry x="150" y="1235" width="50" height="30" as="geometry" />
        </mxCell>
        <mxCell id="QCNMNIQBk-sfIVYiamI_-36" value="else" style="text;html=1;align=center;verticalAlign=middle;resizable=0;points=[];autosize=1;strokeColor=none;fillColor=none;" parent="1" vertex="1">
          <mxGeometry x="155" y="1365" width="50" height="30" as="geometry" />
        </mxCell>
        <mxCell id="QCNMNIQBk-sfIVYiamI_-48" style="edgeStyle=orthogonalEdgeStyle;rounded=0;orthogonalLoop=1;jettySize=auto;html=1;exitX=1;exitY=0.5;exitDx=0;exitDy=0;" parent="1" source="QCNMNIQBk-sfIVYiamI_-51" edge="1">
          <mxGeometry relative="1" as="geometry">
            <mxPoint x="355" y="1460" as="targetPoint" />
          </mxGeometry>
        </mxCell>
        <mxCell id="QCNMNIQBk-sfIVYiamI_-49" style="edgeStyle=orthogonalEdgeStyle;rounded=0;orthogonalLoop=1;jettySize=auto;html=1;exitX=0.5;exitY=1;exitDx=0;exitDy=0;entryX=0.5;entryY=0;entryDx=0;entryDy=0;" parent="1" source="QCNMNIQBk-sfIVYiamI_-51" edge="1">
          <mxGeometry relative="1" as="geometry">
            <mxPoint x="260" y="1530" as="targetPoint" />
          </mxGeometry>
        </mxCell>
        <mxCell id="QCNMNIQBk-sfIVYiamI_-50" style="edgeStyle=orthogonalEdgeStyle;rounded=0;orthogonalLoop=1;jettySize=auto;html=1;exitX=0;exitY=0.5;exitDx=0;exitDy=0;entryX=0.5;entryY=0;entryDx=0;entryDy=0;" parent="1" source="QCNMNIQBk-sfIVYiamI_-51" target="QCNMNIQBk-sfIVYiamI_-57" edge="1">
          <mxGeometry relative="1" as="geometry" />
        </mxCell>
        <mxCell id="QCNMNIQBk-sfIVYiamI_-51" value="If condition" style="rhombus;whiteSpace=wrap;html=1;" parent="1" vertex="1">
          <mxGeometry x="220" y="1420" width="80" height="80" as="geometry" />
        </mxCell>
        <mxCell id="QCNMNIQBk-sfIVYiamI_-52" value="Yes" style="text;html=1;align=center;verticalAlign=middle;resizable=0;points=[];autosize=1;strokeColor=none;fillColor=none;" parent="1" vertex="1">
          <mxGeometry x="300" y="1435" width="40" height="30" as="geometry" />
        </mxCell>
        <mxCell id="QCNMNIQBk-sfIVYiamI_-53" value="elif" style="text;html=1;align=center;verticalAlign=middle;resizable=0;points=[];autosize=1;strokeColor=none;fillColor=none;" parent="1" vertex="1">
          <mxGeometry x="260" y="1490" width="40" height="30" as="geometry" />
        </mxCell>
        <mxCell id="QCNMNIQBk-sfIVYiamI_-54" value="execute something" style="whiteSpace=wrap;html=1;" parent="1" vertex="1">
          <mxGeometry x="355" y="1420" width="120" height="60" as="geometry" />
        </mxCell>
        <mxCell id="QCNMNIQBk-sfIVYiamI_-55" style="edgeStyle=orthogonalEdgeStyle;rounded=0;orthogonalLoop=1;jettySize=auto;html=1;entryX=0.5;entryY=1;entryDx=0;entryDy=0;" parent="1" source="QCNMNIQBk-sfIVYiamI_-56" target="QCNMNIQBk-sfIVYiamI_-57" edge="1">
          <mxGeometry relative="1" as="geometry" />
        </mxCell>
        <mxCell id="QCNMNIQBk-sfIVYiamI_-60" style="edgeStyle=orthogonalEdgeStyle;rounded=0;orthogonalLoop=1;jettySize=auto;html=1;" parent="1" source="QCNMNIQBk-sfIVYiamI_-56" edge="1">
          <mxGeometry relative="1" as="geometry">
            <mxPoint x="370" y="1570" as="targetPoint" />
          </mxGeometry>
        </mxCell>
        <mxCell id="QCNMNIQBk-sfIVYiamI_-56" value="condition" style="rhombus;whiteSpace=wrap;html=1;" parent="1" vertex="1">
          <mxGeometry x="220" y="1530" width="80" height="80" as="geometry" />
        </mxCell>
        <mxCell id="QCNMNIQBk-sfIVYiamI_-57" value="execute some thing" style="whiteSpace=wrap;html=1;" parent="1" vertex="1">
          <mxGeometry x="50" y="1490" width="120" height="60" as="geometry" />
        </mxCell>
        <mxCell id="QCNMNIQBk-sfIVYiamI_-58" value="fails" style="text;html=1;align=center;verticalAlign=middle;resizable=0;points=[];autosize=1;strokeColor=none;fillColor=none;" parent="1" vertex="1">
          <mxGeometry x="135" y="1435" width="40" height="30" as="geometry" />
        </mxCell>
        <mxCell id="QCNMNIQBk-sfIVYiamI_-59" value="fails" style="text;html=1;align=center;verticalAlign=middle;resizable=0;points=[];autosize=1;strokeColor=none;fillColor=none;" parent="1" vertex="1">
          <mxGeometry x="140" y="1565" width="40" height="30" as="geometry" />
        </mxCell>
        <mxCell id="QCNMNIQBk-sfIVYiamI_-61" value="sub condition" style="rhombus;whiteSpace=wrap;html=1;" parent="1" vertex="1">
          <mxGeometry x="370" y="1540" width="80" height="80" as="geometry" />
        </mxCell>
        <mxCell id="QCNMNIQBk-sfIVYiamI_-63" value="portion" style="text;html=1;align=center;verticalAlign=middle;resizable=0;points=[];autosize=1;strokeColor=none;fillColor=none;" parent="1" vertex="1">
          <mxGeometry x="160" y="1255" width="60" height="30" as="geometry" />
        </mxCell>
        <mxCell id="QCNMNIQBk-sfIVYiamI_-65" value="portion" style="text;html=1;align=center;verticalAlign=middle;resizable=0;points=[];autosize=1;strokeColor=none;fillColor=none;" parent="1" vertex="1">
          <mxGeometry x="160" y="1350" width="60" height="30" as="geometry" />
        </mxCell>
        <mxCell id="QCNMNIQBk-sfIVYiamI_-66" value="condion model :&amp;nbsp;" style="text;html=1;align=center;verticalAlign=middle;resizable=0;points=[];autosize=1;strokeColor=none;fillColor=none;" parent="1" vertex="1">
          <mxGeometry x="115" y="1665" width="110" height="30" as="geometry" />
        </mxCell>
        <mxCell id="QCNMNIQBk-sfIVYiamI_-68" value="single condition&amp;nbsp;" style="text;html=1;align=center;verticalAlign=middle;resizable=0;points=[];autosize=1;strokeColor=none;fillColor=none;" parent="1" vertex="1">
          <mxGeometry x="115" y="1685" width="110" height="30" as="geometry" />
        </mxCell>
        <mxCell id="QCNMNIQBk-sfIVYiamI_-69" value="multiple condition&amp;nbsp;" style="text;html=1;align=center;verticalAlign=middle;resizable=0;points=[];autosize=1;strokeColor=none;fillColor=none;" parent="1" vertex="1">
          <mxGeometry x="90" y="1705" width="120" height="30" as="geometry" />
        </mxCell>
        <mxCell id="QCNMNIQBk-sfIVYiamI_-70" value="in one statement&amp;nbsp;" style="text;html=1;align=center;verticalAlign=middle;resizable=0;points=[];autosize=1;strokeColor=none;fillColor=none;" parent="1" vertex="1">
          <mxGeometry x="110" y="1735" width="120" height="30" as="geometry" />
        </mxCell>
        <mxCell id="QCNMNIQBk-sfIVYiamI_-71" value="operators : and or - &amp;amp;&amp;nbsp; &amp;nbsp;||" style="text;html=1;align=center;verticalAlign=middle;resizable=0;points=[];autosize=1;strokeColor=none;fillColor=none;" parent="1" vertex="1">
          <mxGeometry x="65" y="1785" width="150" height="30" as="geometry" />
        </mxCell>
        <mxCell id="aTmxRXXGX9cmo4f24J-i-1" value="functions:" style="text;html=1;align=center;verticalAlign=middle;resizable=0;points=[];autosize=1;strokeColor=none;fillColor=none;" parent="1" vertex="1">
          <mxGeometry x="30" y="1870" width="70" height="30" as="geometry" />
        </mxCell>
        <mxCell id="aTmxRXXGX9cmo4f24J-i-2" value="" style="shape=link;html=1;rounded=0;" parent="1" edge="1">
          <mxGeometry width="100" relative="1" as="geometry">
            <mxPoint x="15" y="1840" as="sourcePoint" />
            <mxPoint x="610" y="1840" as="targetPoint" />
          </mxGeometry>
        </mxCell>
        <mxCell id="aTmxRXXGX9cmo4f24J-i-3" value="use case : reuseablity&amp;nbsp;" style="text;html=1;align=center;verticalAlign=middle;resizable=0;points=[];autosize=1;strokeColor=none;fillColor=none;" parent="1" vertex="1">
          <mxGeometry x="135" y="1870" width="140" height="30" as="geometry" />
        </mxCell>
        <mxCell id="aTmxRXXGX9cmo4f24J-i-4" value="similar to variable" style="text;html=1;align=center;verticalAlign=middle;resizable=0;points=[];autosize=1;strokeColor=none;fillColor=none;" parent="1" vertex="1">
          <mxGeometry x="300" y="1870" width="120" height="30" as="geometry" />
        </mxCell>
        <mxCell id="aTmxRXXGX9cmo4f24J-i-9" style="edgeStyle=orthogonalEdgeStyle;rounded=0;orthogonalLoop=1;jettySize=auto;html=1;" parent="1" source="aTmxRXXGX9cmo4f24J-i-5" edge="1">
          <mxGeometry relative="1" as="geometry">
            <mxPoint x="220" y="2090" as="targetPoint" />
          </mxGeometry>
        </mxCell>
        <mxCell id="aTmxRXXGX9cmo4f24J-i-5" value="executional stmt" style="whiteSpace=wrap;html=1;" parent="1" vertex="1">
          <mxGeometry x="160" y="1970" width="120" height="60" as="geometry" />
        </mxCell>
        <mxCell id="aTmxRXXGX9cmo4f24J-i-6" value="" style="shape=flexArrow;endArrow=classic;html=1;rounded=0;entryX=0.5;entryY=0;entryDx=0;entryDy=0;" parent="1" target="aTmxRXXGX9cmo4f24J-i-5" edge="1">
          <mxGeometry width="50" height="50" relative="1" as="geometry">
            <mxPoint x="220" y="1930" as="sourcePoint" />
            <mxPoint x="250" y="1890" as="targetPoint" />
          </mxGeometry>
        </mxCell>
        <mxCell id="aTmxRXXGX9cmo4f24J-i-8" style="edgeStyle=orthogonalEdgeStyle;rounded=0;orthogonalLoop=1;jettySize=auto;html=1;exitX=0.5;exitY=0.5;exitDx=0;exitDy=0;exitPerimeter=0;" parent="1" source="aTmxRXXGX9cmo4f24J-i-7" edge="1">
          <mxGeometry relative="1" as="geometry">
            <mxPoint x="220" y="1930" as="targetPoint" />
          </mxGeometry>
        </mxCell>
        <mxCell id="aTmxRXXGX9cmo4f24J-i-7" value="Actor" style="shape=umlActor;verticalLabelPosition=bottom;verticalAlign=top;html=1;outlineConnect=0;" parent="1" vertex="1">
          <mxGeometry x="280" y="1910" width="30" height="30" as="geometry" />
        </mxCell>
        <mxCell id="aTmxRXXGX9cmo4f24J-i-10" value="return the result" style="text;html=1;align=center;verticalAlign=middle;resizable=0;points=[];autosize=1;strokeColor=none;fillColor=none;" parent="1" vertex="1">
          <mxGeometry x="165" y="2085" width="110" height="30" as="geometry" />
        </mxCell>
        <mxCell id="aTmxRXXGX9cmo4f24J-i-11" value="how can be make the function as reusablity&amp;nbsp;" style="text;html=1;align=center;verticalAlign=middle;resizable=0;points=[];autosize=1;strokeColor=none;fillColor=none;" parent="1" vertex="1">
          <mxGeometry x="325" y="1970" width="260" height="30" as="geometry" />
        </mxCell>
        <mxCell id="L9CIbg3IwU2Iem7TQG_o-1" value="" style="shape=link;html=1;rounded=0;" parent="1" edge="1">
          <mxGeometry width="100" relative="1" as="geometry">
            <mxPoint x="10" y="2140" as="sourcePoint" />
            <mxPoint x="830" y="2130" as="targetPoint" />
          </mxGeometry>
        </mxCell>
        <mxCell id="L9CIbg3IwU2Iem7TQG_o-2" value="git" style="text;html=1;align=center;verticalAlign=middle;resizable=0;points=[];autosize=1;strokeColor=none;fillColor=none;" parent="1" vertex="1">
          <mxGeometry x="60" y="2145" width="40" height="30" as="geometry" />
        </mxCell>
        <mxCell id="L9CIbg3IwU2Iem7TQG_o-3" value="text file" style="whiteSpace=wrap;html=1;" parent="1" vertex="1">
          <mxGeometry x="355" y="2170" width="120" height="60" as="geometry" />
        </mxCell>
        <mxCell id="L9CIbg3IwU2Iem7TQG_o-4" value="repository tool" style="text;html=1;align=center;verticalAlign=middle;resizable=0;points=[];autosize=1;strokeColor=none;fillColor=none;" parent="1" vertex="1">
          <mxGeometry x="35" y="2200" width="100" height="30" as="geometry" />
        </mxCell>
        <mxCell id="L9CIbg3IwU2Iem7TQG_o-5" value="sorce code mgmt" style="text;html=1;align=center;verticalAlign=middle;resizable=0;points=[];autosize=1;strokeColor=none;fillColor=none;" parent="1" vertex="1">
          <mxGeometry x="35" y="2225" width="120" height="30" as="geometry" />
        </mxCell>
        <mxCell id="L9CIbg3IwU2Iem7TQG_o-6" value="config mgmt" style="text;html=1;align=center;verticalAlign=middle;resizable=0;points=[];autosize=1;strokeColor=none;fillColor=none;" parent="1" vertex="1">
          <mxGeometry x="35" y="2255" width="90" height="30" as="geometry" />
        </mxCell>
        <mxCell id="L9CIbg3IwU2Iem7TQG_o-7" value="checkin" style="text;html=1;align=center;verticalAlign=middle;resizable=0;points=[];autosize=1;strokeColor=none;fillColor=none;" parent="1" vertex="1">
          <mxGeometry x="40" y="2280" width="60" height="30" as="geometry" />
        </mxCell>
        <mxCell id="L9CIbg3IwU2Iem7TQG_o-9" value="Actor" style="shape=umlActor;verticalLabelPosition=bottom;verticalAlign=top;html=1;outlineConnect=0;" parent="1" vertex="1">
          <mxGeometry x="275" y="2160" width="30" height="60" as="geometry" />
        </mxCell>
        <mxCell id="L9CIbg3IwU2Iem7TQG_o-10" value="Actor" style="shape=umlActor;verticalLabelPosition=bottom;verticalAlign=top;html=1;outlineConnect=0;" parent="1" vertex="1">
          <mxGeometry x="320" y="2230" width="30" height="60" as="geometry" />
        </mxCell>
        <mxCell id="L9CIbg3IwU2Iem7TQG_o-11" value="text file" style="whiteSpace=wrap;html=1;" parent="1" vertex="1">
          <mxGeometry x="490" y="2200" width="120" height="60" as="geometry" />
        </mxCell>
        <mxCell id="L9CIbg3IwU2Iem7TQG_o-12" value="Actor" style="shape=umlActor;verticalLabelPosition=bottom;verticalAlign=top;html=1;outlineConnect=0;" parent="1" vertex="1">
          <mxGeometry x="250" y="2265" width="30" height="60" as="geometry" />
        </mxCell>
        <mxCell id="L9CIbg3IwU2Iem7TQG_o-13" value="Actor" style="shape=umlActor;verticalLabelPosition=bottom;verticalAlign=top;html=1;outlineConnect=0;" parent="1" vertex="1">
          <mxGeometry x="170" y="2320" width="30" height="60" as="geometry" />
        </mxCell>
        <mxCell id="L9CIbg3IwU2Iem7TQG_o-14" value="us" style="ellipse;whiteSpace=wrap;html=1;aspect=fixed;" parent="1" vertex="1">
          <mxGeometry x="40" y="2320" width="80" height="80" as="geometry" />
        </mxCell>
        <mxCell id="L9CIbg3IwU2Iem7TQG_o-15" value="text file" style="whiteSpace=wrap;html=1;" parent="1" vertex="1">
          <mxGeometry x="40" y="2440" width="120" height="60" as="geometry" />
        </mxCell>
        <mxCell id="L9CIbg3IwU2Iem7TQG_o-16" value="text file" style="whiteSpace=wrap;html=1;" parent="1" vertex="1">
          <mxGeometry x="20" y="2570" width="120" height="60" as="geometry" />
        </mxCell>
        <mxCell id="L9CIbg3IwU2Iem7TQG_o-17" value="uk" style="ellipse;whiteSpace=wrap;html=1;aspect=fixed;" parent="1" vertex="1">
          <mxGeometry x="420" y="2325" width="80" height="80" as="geometry" />
        </mxCell>
        <mxCell id="L9CIbg3IwU2Iem7TQG_o-18" value="text file" style="whiteSpace=wrap;html=1;" parent="1" vertex="1">
          <mxGeometry x="570" y="2420" width="120" height="60" as="geometry" />
        </mxCell>
        <mxCell id="L9CIbg3IwU2Iem7TQG_o-19" value="text file" style="whiteSpace=wrap;html=1;" parent="1" vertex="1">
          <mxGeometry x="435" y="2495" width="120" height="60" as="geometry" />
        </mxCell>
        <mxCell id="L9CIbg3IwU2Iem7TQG_o-22" value="Actor" style="shape=umlActor;verticalLabelPosition=bottom;verticalAlign=top;html=1;outlineConnect=0;" parent="1" vertex="1">
          <mxGeometry x="330" y="2430" width="30" height="60" as="geometry" />
        </mxCell>
        <mxCell id="L9CIbg3IwU2Iem7TQG_o-23" value="folder" style="whiteSpace=wrap;html=1;" parent="1" vertex="1">
          <mxGeometry x="280" y="2630" width="120" height="60" as="geometry" />
        </mxCell>
        <mxCell id="L9CIbg3IwU2Iem7TQG_o-24" value="shared folder" style="text;html=1;align=center;verticalAlign=middle;resizable=0;points=[];autosize=1;strokeColor=none;fillColor=none;" parent="1" vertex="1">
          <mxGeometry x="190" y="2670" width="90" height="30" as="geometry" />
        </mxCell>
        <mxCell id="L9CIbg3IwU2Iem7TQG_o-25" value="version control" style="text;html=1;align=center;verticalAlign=middle;resizable=0;points=[];autosize=1;strokeColor=none;fillColor=none;" parent="1" vertex="1">
          <mxGeometry x="35" y="2750" width="100" height="30" as="geometry" />
        </mxCell>
        <mxCell id="L9CIbg3IwU2Iem7TQG_o-26" value="git" style="text;html=1;align=center;verticalAlign=middle;resizable=0;points=[];autosize=1;strokeColor=none;fillColor=none;" parent="1" vertex="1">
          <mxGeometry x="90" y="2775" width="40" height="30" as="geometry" />
        </mxCell>
        <mxCell id="L9CIbg3IwU2Iem7TQG_o-27" value="hub" style="text;html=1;align=center;verticalAlign=middle;resizable=0;points=[];autosize=1;strokeColor=none;fillColor=none;" parent="1" vertex="1">
          <mxGeometry x="90" y="2805" width="40" height="30" as="geometry" />
        </mxCell>
        <mxCell id="L9CIbg3IwU2Iem7TQG_o-28" value="lab" style="text;html=1;align=center;verticalAlign=middle;resizable=0;points=[];autosize=1;strokeColor=none;fillColor=none;" parent="1" vertex="1">
          <mxGeometry x="90" y="2835" width="40" height="30" as="geometry" />
        </mxCell>
        <mxCell id="L9CIbg3IwU2Iem7TQG_o-29" value="vss" style="text;html=1;align=center;verticalAlign=middle;resizable=0;points=[];autosize=1;strokeColor=none;fillColor=none;" parent="1" vertex="1">
          <mxGeometry x="180" y="2775" width="40" height="30" as="geometry" />
        </mxCell>
        <mxCell id="L9CIbg3IwU2Iem7TQG_o-30" value="svn" style="text;html=1;align=center;verticalAlign=middle;resizable=0;points=[];autosize=1;strokeColor=none;fillColor=none;" parent="1" vertex="1">
          <mxGeometry x="180" y="2805" width="40" height="30" as="geometry" />
        </mxCell>
        <mxCell id="L9CIbg3IwU2Iem7TQG_o-31" value="git hub is a open source tool ----- you have full access on free account -" style="text;html=1;align=center;verticalAlign=middle;resizable=0;points=[];autosize=1;strokeColor=none;fillColor=none;" parent="1" vertex="1">
          <mxGeometry x="295" y="2775" width="400" height="30" as="geometry" />
        </mxCell>
        <mxCell id="L9CIbg3IwU2Iem7TQG_o-32" value="" style="whiteSpace=wrap;html=1;aspect=fixed;" parent="1" vertex="1">
          <mxGeometry x="175" y="2950" width="315" height="315" as="geometry" />
        </mxCell>
        <mxCell id="L9CIbg3IwU2Iem7TQG_o-33" value="" style="rounded=0;whiteSpace=wrap;html=1;" parent="1" vertex="1">
          <mxGeometry x="195" y="2980" width="265" height="190" as="geometry" />
        </mxCell>
        <mxCell id="L9CIbg3IwU2Iem7TQG_o-35" value="" style="shape=tape;whiteSpace=wrap;html=1;" parent="1" vertex="1">
          <mxGeometry x="205" y="2990" width="120" height="100" as="geometry" />
        </mxCell>
        <mxCell id="L9CIbg3IwU2Iem7TQG_o-37" value="feature branch" style="shape=tape;whiteSpace=wrap;html=1;" parent="1" vertex="1">
          <mxGeometry x="330" y="2980" width="120" height="100" as="geometry" />
        </mxCell>
        <mxCell id="L9CIbg3IwU2Iem7TQG_o-38" value="repo" style="text;html=1;align=center;verticalAlign=middle;resizable=0;points=[];autosize=1;strokeColor=none;fillColor=none;" parent="1" vertex="1">
          <mxGeometry x="350" y="3220" width="50" height="30" as="geometry" />
        </mxCell>
        <mxCell id="L9CIbg3IwU2Iem7TQG_o-39" value="master branch" style="text;html=1;align=center;verticalAlign=middle;resizable=0;points=[];autosize=1;strokeColor=none;fillColor=none;" parent="1" vertex="1">
          <mxGeometry x="205" y="3025" width="100" height="30" as="geometry" />
        </mxCell>
        <mxCell id="L9CIbg3IwU2Iem7TQG_o-40" value="Name of master branch - will be -&amp;nbsp;&lt;br&gt;master only&amp;nbsp;" style="text;html=1;align=center;verticalAlign=middle;resizable=0;points=[];autosize=1;strokeColor=none;fillColor=none;" parent="1" vertex="1">
          <mxGeometry x="70" y="2920" width="200" height="40" as="geometry" />
        </mxCell>
        <mxCell id="L9CIbg3IwU2Iem7TQG_o-41" value="feature branch can be any name" style="text;html=1;align=center;verticalAlign=middle;resizable=0;points=[];autosize=1;strokeColor=none;fillColor=none;" parent="1" vertex="1">
          <mxGeometry x="530" y="3010" width="200" height="30" as="geometry" />
        </mxCell>
        <mxCell id="L9CIbg3IwU2Iem7TQG_o-43" value="" style="rounded=0;whiteSpace=wrap;html=1;" parent="1" vertex="1">
          <mxGeometry x="520" y="3280" width="120" height="60" as="geometry" />
        </mxCell>
        <mxCell id="L9CIbg3IwU2Iem7TQG_o-44" value="repo" style="ellipse;whiteSpace=wrap;html=1;" parent="1" vertex="1">
          <mxGeometry x="115" y="3390" width="260" height="180" as="geometry" />
        </mxCell>
        <mxCell id="L9CIbg3IwU2Iem7TQG_o-45" value="workflow" style="text;html=1;align=center;verticalAlign=middle;resizable=0;points=[];autosize=1;strokeColor=none;fillColor=none;" parent="1" vertex="1">
          <mxGeometry x="35" y="3335" width="70" height="30" as="geometry" />
        </mxCell>
        <mxCell id="L9CIbg3IwU2Iem7TQG_o-46" value="Actor" style="shape=umlActor;verticalLabelPosition=bottom;verticalAlign=top;html=1;outlineConnect=0;" parent="1" vertex="1">
          <mxGeometry x="680" y="3590" width="30" height="60" as="geometry" />
        </mxCell>
        <mxCell id="L9CIbg3IwU2Iem7TQG_o-47" value="Actor" style="shape=umlActor;verticalLabelPosition=bottom;verticalAlign=top;html=1;outlineConnect=0;" parent="1" vertex="1">
          <mxGeometry x="165" y="3770" width="30" height="60" as="geometry" />
        </mxCell>
        <mxCell id="L9CIbg3IwU2Iem7TQG_o-49" value="git clone&amp;nbsp;" style="text;html=1;align=center;verticalAlign=middle;resizable=0;points=[];autosize=1;strokeColor=none;fillColor=none;" parent="1" vertex="1">
          <mxGeometry x="485" y="3765" width="70" height="30" as="geometry" />
        </mxCell>
        <mxCell id="L9CIbg3IwU2Iem7TQG_o-59" style="edgeStyle=orthogonalEdgeStyle;rounded=0;orthogonalLoop=1;jettySize=auto;html=1;" parent="1" source="L9CIbg3IwU2Iem7TQG_o-50" target="L9CIbg3IwU2Iem7TQG_o-44" edge="1">
          <mxGeometry relative="1" as="geometry" />
        </mxCell>
        <mxCell id="L9CIbg3IwU2Iem7TQG_o-50" value="this help to clone the repository or download it also" style="text;html=1;align=center;verticalAlign=middle;resizable=0;points=[];autosize=1;strokeColor=none;fillColor=none;" parent="1" vertex="1">
          <mxGeometry x="560" y="3770" width="290" height="30" as="geometry" />
        </mxCell>
        <mxCell id="L9CIbg3IwU2Iem7TQG_o-52" value="make the change" style="whiteSpace=wrap;html=1;" parent="1" vertex="1">
          <mxGeometry x="575" y="3820" width="120" height="60" as="geometry" />
        </mxCell>
        <mxCell id="L9CIbg3IwU2Iem7TQG_o-54" value="git commit" style="text;html=1;align=center;verticalAlign=middle;resizable=0;points=[];autosize=1;strokeColor=none;fillColor=none;" parent="1" vertex="1">
          <mxGeometry x="485" y="3920" width="80" height="30" as="geometry" />
        </mxCell>
        <mxCell id="L9CIbg3IwU2Iem7TQG_o-55" value="commit the changes" style="text;html=1;align=center;verticalAlign=middle;resizable=0;points=[];autosize=1;strokeColor=none;fillColor=none;" parent="1" vertex="1">
          <mxGeometry x="585" y="3920" width="130" height="30" as="geometry" />
        </mxCell>
        <mxCell id="L9CIbg3IwU2Iem7TQG_o-56" value="git push&amp;nbsp;" style="text;html=1;align=center;verticalAlign=middle;resizable=0;points=[];autosize=1;strokeColor=none;fillColor=none;" parent="1" vertex="1">
          <mxGeometry x="485" y="3955" width="70" height="30" as="geometry" />
        </mxCell>
        <mxCell id="L9CIbg3IwU2Iem7TQG_o-57" value="push the changes" style="text;html=1;align=center;verticalAlign=middle;resizable=0;points=[];autosize=1;strokeColor=none;fillColor=none;" parent="1" vertex="1">
          <mxGeometry x="590" y="3955" width="120" height="30" as="geometry" />
        </mxCell>
        <mxCell id="L9CIbg3IwU2Iem7TQG_o-60" value="master branch" style="text;html=1;align=center;verticalAlign=middle;resizable=0;points=[];autosize=1;strokeColor=none;fillColor=none;" parent="1" vertex="1">
          <mxGeometry x="245" y="3605" width="100" height="30" as="geometry" />
        </mxCell>
        <mxCell id="L9CIbg3IwU2Iem7TQG_o-61" value="text file" style="whiteSpace=wrap;html=1;" parent="1" vertex="1">
          <mxGeometry x="70" y="4060" width="120" height="60" as="geometry" />
        </mxCell>
        <mxCell id="L9CIbg3IwU2Iem7TQG_o-62" value="login" style="text;html=1;align=center;verticalAlign=middle;resizable=0;points=[];autosize=1;strokeColor=none;fillColor=none;" parent="1" vertex="1">
          <mxGeometry x="115" y="4135" width="50" height="30" as="geometry" />
        </mxCell>
        <mxCell id="L9CIbg3IwU2Iem7TQG_o-63" value="open file" style="text;html=1;align=center;verticalAlign=middle;resizable=0;points=[];autosize=1;strokeColor=none;fillColor=none;" parent="1" vertex="1">
          <mxGeometry x="105" y="4165" width="70" height="30" as="geometry" />
        </mxCell>
        <mxCell id="L9CIbg3IwU2Iem7TQG_o-64" value="modify the file" style="text;html=1;align=center;verticalAlign=middle;resizable=0;points=[];autosize=1;strokeColor=none;fillColor=none;" parent="1" vertex="1">
          <mxGeometry x="90" y="4195" width="100" height="30" as="geometry" />
        </mxCell>
        <mxCell id="L9CIbg3IwU2Iem7TQG_o-65" value="save the fille" style="text;html=1;align=center;verticalAlign=middle;resizable=0;points=[];autosize=1;strokeColor=none;fillColor=none;" parent="1" vertex="1">
          <mxGeometry x="95" y="4225" width="90" height="30" as="geometry" />
        </mxCell>
        <mxCell id="L9CIbg3IwU2Iem7TQG_o-66" value="close the file" style="text;html=1;align=center;verticalAlign=middle;resizable=0;points=[];autosize=1;strokeColor=none;fillColor=none;" parent="1" vertex="1">
          <mxGeometry x="85" y="4255" width="90" height="30" as="geometry" />
        </mxCell>
        <mxCell id="L9CIbg3IwU2Iem7TQG_o-67" value="database&amp;nbsp;" style="whiteSpace=wrap;html=1;" parent="1" vertex="1">
          <mxGeometry x="225" y="4050" width="120" height="60" as="geometry" />
        </mxCell>
        <mxCell id="L9CIbg3IwU2Iem7TQG_o-68" value="login" style="text;html=1;align=center;verticalAlign=middle;resizable=0;points=[];autosize=1;strokeColor=none;fillColor=none;" parent="1" vertex="1">
          <mxGeometry x="270" y="4125" width="50" height="30" as="geometry" />
        </mxCell>
        <mxCell id="L9CIbg3IwU2Iem7TQG_o-69" value="open file" style="text;html=1;align=center;verticalAlign=middle;resizable=0;points=[];autosize=1;strokeColor=none;fillColor=none;" parent="1" vertex="1">
          <mxGeometry x="260" y="4155" width="70" height="30" as="geometry" />
        </mxCell>
        <mxCell id="L9CIbg3IwU2Iem7TQG_o-70" value="modify the file" style="text;html=1;align=center;verticalAlign=middle;resizable=0;points=[];autosize=1;strokeColor=none;fillColor=none;" parent="1" vertex="1">
          <mxGeometry x="245" y="4185" width="100" height="30" as="geometry" />
        </mxCell>
        <mxCell id="L9CIbg3IwU2Iem7TQG_o-71" value="save the fille" style="text;html=1;align=center;verticalAlign=middle;resizable=0;points=[];autosize=1;strokeColor=none;fillColor=none;" parent="1" vertex="1">
          <mxGeometry x="250" y="4215" width="90" height="30" as="geometry" />
        </mxCell>
        <mxCell id="L9CIbg3IwU2Iem7TQG_o-72" value="close the file" style="text;html=1;align=center;verticalAlign=middle;resizable=0;points=[];autosize=1;strokeColor=none;fillColor=none;" parent="1" vertex="1">
          <mxGeometry x="240" y="4245" width="90" height="30" as="geometry" />
        </mxCell>
        <mxCell id="L9CIbg3IwU2Iem7TQG_o-75" value="git db" style="shape=cylinder3;whiteSpace=wrap;html=1;boundedLbl=1;backgroundOutline=1;size=15;" parent="1" vertex="1">
          <mxGeometry x="760" y="3850" width="60" height="80" as="geometry" />
        </mxCell>
        <mxCell id="L9CIbg3IwU2Iem7TQG_o-76" value="git db" style="shape=cylinder3;whiteSpace=wrap;html=1;boundedLbl=1;backgroundOutline=1;size=15;" parent="1" vertex="1">
          <mxGeometry x="380" y="3460" width="60" height="80" as="geometry" />
        </mxCell>
        <mxCell id="1xxf7OwLNXuxpOBTWi3V-2" value="" style="shape=link;html=1;rounded=0;" parent="1" edge="1">
          <mxGeometry width="100" relative="1" as="geometry">
            <mxPoint x="40" y="4320" as="sourcePoint" />
            <mxPoint x="770" y="4330" as="targetPoint" />
          </mxGeometry>
        </mxCell>
        <mxCell id="1xxf7OwLNXuxpOBTWi3V-3" value="saml auth" style="text;html=1;align=center;verticalAlign=middle;resizable=0;points=[];autosize=1;strokeColor=none;fillColor=none;" parent="1" vertex="1">
          <mxGeometry x="280" y="4335" width="80" height="30" as="geometry" />
        </mxCell>
        <mxCell id="1xxf7OwLNXuxpOBTWi3V-4" value="ad" style="text;html=1;align=center;verticalAlign=middle;resizable=0;points=[];autosize=1;strokeColor=none;fillColor=none;" parent="1" vertex="1">
          <mxGeometry x="390" y="4345" width="40" height="30" as="geometry" />
        </mxCell>
        <mxCell id="1xxf7OwLNXuxpOBTWi3V-11" style="edgeStyle=orthogonalEdgeStyle;rounded=0;orthogonalLoop=1;jettySize=auto;html=1;entryX=1;entryY=0.5;entryDx=0;entryDy=0;" parent="1" source="1xxf7OwLNXuxpOBTWi3V-5" target="1xxf7OwLNXuxpOBTWi3V-10" edge="1">
          <mxGeometry relative="1" as="geometry" />
        </mxCell>
        <mxCell id="1xxf7OwLNXuxpOBTWi3V-21" style="edgeStyle=orthogonalEdgeStyle;rounded=0;orthogonalLoop=1;jettySize=auto;html=1;exitX=1;exitY=0.5;exitDx=0;exitDy=0;" parent="1" source="1xxf7OwLNXuxpOBTWi3V-5" target="1xxf7OwLNXuxpOBTWi3V-18" edge="1">
          <mxGeometry relative="1" as="geometry" />
        </mxCell>
        <mxCell id="1xxf7OwLNXuxpOBTWi3V-5" value="vault" style="whiteSpace=wrap;html=1;aspect=fixed;" parent="1" vertex="1">
          <mxGeometry x="460" y="4420" width="80" height="80" as="geometry" />
        </mxCell>
        <mxCell id="1xxf7OwLNXuxpOBTWi3V-6" value="" style="shape=parallelogram;perimeter=parallelogramPerimeter;whiteSpace=wrap;html=1;fixedSize=1;" parent="1" vertex="1">
          <mxGeometry x="355" y="4480" width="120" height="60" as="geometry" />
        </mxCell>
        <mxCell id="1xxf7OwLNXuxpOBTWi3V-7" value="" style="shape=parallelogram;perimeter=parallelogramPerimeter;whiteSpace=wrap;html=1;fixedSize=1;" parent="1" vertex="1">
          <mxGeometry x="275" y="4510" width="120" height="60" as="geometry" />
        </mxCell>
        <mxCell id="1xxf7OwLNXuxpOBTWi3V-9" style="edgeStyle=orthogonalEdgeStyle;rounded=0;orthogonalLoop=1;jettySize=auto;html=1;entryX=0;entryY=0.5;entryDx=0;entryDy=0;" parent="1" source="1xxf7OwLNXuxpOBTWi3V-8" target="1xxf7OwLNXuxpOBTWi3V-10" edge="1">
          <mxGeometry relative="1" as="geometry">
            <mxPoint x="190" y="4380" as="targetPoint" />
          </mxGeometry>
        </mxCell>
        <mxCell id="1xxf7OwLNXuxpOBTWi3V-16" style="edgeStyle=orthogonalEdgeStyle;rounded=0;orthogonalLoop=1;jettySize=auto;html=1;exitX=1;exitY=1;exitDx=0;exitDy=0;exitPerimeter=0;" parent="1" source="1xxf7OwLNXuxpOBTWi3V-8" target="1xxf7OwLNXuxpOBTWi3V-5" edge="1">
          <mxGeometry relative="1" as="geometry">
            <Array as="points">
              <mxPoint x="140" y="4470" />
              <mxPoint x="300" y="4470" />
              <mxPoint x="300" y="4460" />
            </Array>
          </mxGeometry>
        </mxCell>
        <mxCell id="1xxf7OwLNXuxpOBTWi3V-8" value="Actor" style="shape=umlActor;verticalLabelPosition=bottom;verticalAlign=top;html=1;outlineConnect=0;" parent="1" vertex="1">
          <mxGeometry x="110" y="4470" width="30" height="60" as="geometry" />
        </mxCell>
        <mxCell id="1xxf7OwLNXuxpOBTWi3V-10" value="apps_mgmt_admin" style="ellipse;whiteSpace=wrap;html=1;aspect=fixed;" parent="1" vertex="1">
          <mxGeometry x="200" y="4340" width="90" height="90" as="geometry" />
        </mxCell>
        <mxCell id="1xxf7OwLNXuxpOBTWi3V-18" value="folder1" style="text;html=1;align=center;verticalAlign=middle;resizable=0;points=[];autosize=1;strokeColor=none;fillColor=none;" parent="1" vertex="1">
          <mxGeometry x="550" y="4415" width="60" height="30" as="geometry" />
        </mxCell>
        <mxCell id="1xxf7OwLNXuxpOBTWi3V-19" value="folder2" style="text;html=1;align=center;verticalAlign=middle;resizable=0;points=[];autosize=1;strokeColor=none;fillColor=none;" parent="1" vertex="1">
          <mxGeometry x="550" y="4445" width="60" height="30" as="geometry" />
        </mxCell>
        <mxCell id="1xxf7OwLNXuxpOBTWi3V-20" value="folder3" style="text;html=1;align=center;verticalAlign=middle;resizable=0;points=[];autosize=1;strokeColor=none;fillColor=none;" parent="1" vertex="1">
          <mxGeometry x="550" y="4480" width="60" height="30" as="geometry" />
        </mxCell>
        <mxCell id="1xxf7OwLNXuxpOBTWi3V-22" value="confg" style="text;html=1;align=center;verticalAlign=middle;resizable=0;points=[];autosize=1;strokeColor=none;fillColor=none;" parent="1" vertex="1">
          <mxGeometry x="235" y="4635" width="50" height="30" as="geometry" />
        </mxCell>
        <mxCell id="1xxf7OwLNXuxpOBTWi3V-23" value="group details" style="text;html=1;align=center;verticalAlign=middle;resizable=0;points=[];autosize=1;strokeColor=none;fillColor=none;" parent="1" vertex="1">
          <mxGeometry x="235" y="4685" width="90" height="30" as="geometry" />
        </mxCell>
        <mxCell id="1xxf7OwLNXuxpOBTWi3V-24" value="policy" style="text;html=1;align=center;verticalAlign=middle;resizable=0;points=[];autosize=1;strokeColor=none;fillColor=none;" parent="1" vertex="1">
          <mxGeometry x="400" y="4680" width="50" height="30" as="geometry" />
        </mxCell>
        <mxCell id="1xxf7OwLNXuxpOBTWi3V-26" value="path" style="text;html=1;align=center;verticalAlign=middle;resizable=0;points=[];autosize=1;strokeColor=none;fillColor=none;" parent="1" vertex="1">
          <mxGeometry x="605" y="4680" width="50" height="30" as="geometry" />
        </mxCell>
        <mxCell id="1xxf7OwLNXuxpOBTWi3V-27" value="&lt;span style=&quot;&quot;&gt;apps_mgmt_admin&lt;/span&gt;" style="text;html=1;align=center;verticalAlign=middle;resizable=0;points=[];autosize=1;strokeColor=none;fillColor=none;" parent="1" vertex="1">
          <mxGeometry x="205" y="4715" width="130" height="30" as="geometry" />
        </mxCell>
        <mxCell id="1xxf7OwLNXuxpOBTWi3V-28" value="read, write, modiry, add, delete" style="text;html=1;align=center;verticalAlign=middle;resizable=0;points=[];autosize=1;strokeColor=none;fillColor=none;" parent="1" vertex="1">
          <mxGeometry x="345" y="4715" width="190" height="30" as="geometry" />
        </mxCell>
        <mxCell id="1xxf7OwLNXuxpOBTWi3V-29" value="/path/path/folder1" style="text;html=1;align=center;verticalAlign=middle;resizable=0;points=[];autosize=1;strokeColor=none;fillColor=none;" parent="1" vertex="1">
          <mxGeometry x="570" y="4715" width="120" height="30" as="geometry" />
        </mxCell>
        <mxCell id="1xxf7OwLNXuxpOBTWi3V-31" value="" style="shape=link;html=1;rounded=0;" parent="1" edge="1">
          <mxGeometry width="100" relative="1" as="geometry">
            <mxPoint x="50" y="4780" as="sourcePoint" />
            <mxPoint x="780" y="4790" as="targetPoint" />
          </mxGeometry>
        </mxCell>
        <mxCell id="kDopP08nSm5VzjpAHeQn-10" style="edgeStyle=orthogonalEdgeStyle;rounded=0;orthogonalLoop=1;jettySize=auto;html=1;" parent="1" source="kDopP08nSm5VzjpAHeQn-1" edge="1">
          <mxGeometry relative="1" as="geometry">
            <mxPoint x="240" y="5252.758620689655" as="targetPoint" />
          </mxGeometry>
        </mxCell>
        <mxCell id="kDopP08nSm5VzjpAHeQn-1" value="Master" style="rounded=0;whiteSpace=wrap;html=1;" parent="1" vertex="1">
          <mxGeometry x="100" y="4990" width="205" height="100" as="geometry" />
        </mxCell>
        <mxCell id="kDopP08nSm5VzjpAHeQn-12" style="edgeStyle=orthogonalEdgeStyle;rounded=0;orthogonalLoop=1;jettySize=auto;html=1;" parent="1" source="kDopP08nSm5VzjpAHeQn-2" target="kDopP08nSm5VzjpAHeQn-1" edge="1">
          <mxGeometry relative="1" as="geometry" />
        </mxCell>
        <mxCell id="kDopP08nSm5VzjpAHeQn-2" value="feature branch - 1072" style="rounded=1;whiteSpace=wrap;html=1;" parent="1" vertex="1">
          <mxGeometry x="435" y="5010" width="255" height="120" as="geometry" />
        </mxCell>
        <mxCell id="kDopP08nSm5VzjpAHeQn-3" value="" style="verticalLabelPosition=bottom;sketch=0;html=1;fillColor=#A153A0;verticalAlign=top;align=center;pointerEvents=1;shape=mxgraph.cisco_safe.design.actor_2;" parent="1" vertex="1">
          <mxGeometry x="631" y="5290" width="84" height="100" as="geometry" />
        </mxCell>
        <mxCell id="kDopP08nSm5VzjpAHeQn-4" value="original reposityr" style="text;html=1;align=center;verticalAlign=middle;resizable=0;points=[];autosize=1;strokeColor=none;fillColor=none;" parent="1" vertex="1">
          <mxGeometry x="35" y="4905" width="110" height="30" as="geometry" />
        </mxCell>
        <mxCell id="kDopP08nSm5VzjpAHeQn-5" value="" style="rounded=0;whiteSpace=wrap;html=1;" parent="1" vertex="1">
          <mxGeometry x="45" y="4940" width="695" height="20" as="geometry" />
        </mxCell>
        <mxCell id="kDopP08nSm5VzjpAHeQn-6" value="1072 --- jira" style="text;html=1;align=center;verticalAlign=middle;resizable=0;points=[];autosize=1;strokeColor=none;fillColor=none;" parent="1" vertex="1">
          <mxGeometry x="80" y="5245" width="80" height="30" as="geometry" />
        </mxCell>
        <mxCell id="kDopP08nSm5VzjpAHeQn-7" value="git checkout master&lt;br&gt;&lt;br&gt;git pull&lt;br&gt;&lt;br&gt;" style="text;html=1;align=center;verticalAlign=middle;resizable=0;points=[];autosize=1;strokeColor=none;fillColor=none;" parent="1" vertex="1">
          <mxGeometry x="360" y="5175" width="130" height="70" as="geometry" />
        </mxCell>
        <mxCell id="kDopP08nSm5VzjpAHeQn-8" value="git checkout -b bug-1072" style="text;html=1;align=center;verticalAlign=middle;resizable=0;points=[];autosize=1;strokeColor=none;fillColor=none;" parent="1" vertex="1">
          <mxGeometry x="350" y="5230" width="160" height="30" as="geometry" />
        </mxCell>
        <mxCell id="kDopP08nSm5VzjpAHeQn-11" value="download code" style="whiteSpace=wrap;html=1;" parent="1" vertex="1">
          <mxGeometry x="170" y="5240" width="120" height="60" as="geometry" />
        </mxCell>
        <mxCell id="kDopP08nSm5VzjpAHeQn-13" value="pull request" style="rounded=1;whiteSpace=wrap;html=1;" parent="1" vertex="1">
          <mxGeometry x="315" y="5000" width="120" height="60" as="geometry" />
        </mxCell>
        <mxCell id="kDopP08nSm5VzjpAHeQn-14" value="clien1" style="whiteSpace=wrap;html=1;" parent="1" vertex="1">
          <mxGeometry x="110" y="5390" width="120" height="60" as="geometry" />
        </mxCell>
        <mxCell id="kDopP08nSm5VzjpAHeQn-15" value="client2" style="whiteSpace=wrap;html=1;" parent="1" vertex="1">
          <mxGeometry x="260" y="5390" width="120" height="60" as="geometry" />
        </mxCell>
        <mxCell id="kDopP08nSm5VzjpAHeQn-16" value="client3" style="whiteSpace=wrap;html=1;" parent="1" vertex="1">
          <mxGeometry x="410" y="5390" width="120" height="60" as="geometry" />
        </mxCell>
        <mxCell id="kDopP08nSm5VzjpAHeQn-25" style="edgeStyle=orthogonalEdgeStyle;rounded=0;orthogonalLoop=1;jettySize=auto;html=1;" parent="1" source="kDopP08nSm5VzjpAHeQn-18" target="kDopP08nSm5VzjpAHeQn-22" edge="1">
          <mxGeometry relative="1" as="geometry" />
        </mxCell>
        <mxCell id="kDopP08nSm5VzjpAHeQn-18" value="secure_page" style="whiteSpace=wrap;html=1;" parent="1" vertex="1">
          <mxGeometry x="105" y="5590" width="120" height="60" as="geometry" />
        </mxCell>
        <mxCell id="kDopP08nSm5VzjpAHeQn-19" value="" style="shape=link;html=1;rounded=0;" parent="1" edge="1">
          <mxGeometry width="100" relative="1" as="geometry">
            <mxPoint x="70" y="5499" as="sourcePoint" />
            <mxPoint x="810" y="5500" as="targetPoint" />
          </mxGeometry>
        </mxCell>
        <mxCell id="kDopP08nSm5VzjpAHeQn-20" value="" style="html=1;outlineConnect=0;whiteSpace=wrap;fillColor=#ffff99;verticalLabelPosition=bottom;verticalAlign=top;align=center;shape=mxgraph.archimate3.actor;" parent="1" vertex="1">
          <mxGeometry x="520" y="5700" width="50" height="95" as="geometry" />
        </mxCell>
        <mxCell id="kDopP08nSm5VzjpAHeQn-21" value="org" style="text;html=1;align=center;verticalAlign=middle;resizable=0;points=[];autosize=1;strokeColor=none;fillColor=none;" parent="1" vertex="1">
          <mxGeometry x="110" y="5545" width="40" height="30" as="geometry" />
        </mxCell>
        <mxCell id="kDopP08nSm5VzjpAHeQn-27" style="edgeStyle=orthogonalEdgeStyle;rounded=0;orthogonalLoop=1;jettySize=auto;html=1;exitX=0;exitY=1;exitDx=0;exitDy=0;" parent="1" source="kDopP08nSm5VzjpAHeQn-22" edge="1">
          <mxGeometry relative="1" as="geometry">
            <mxPoint x="330" y="5680" as="targetPoint" />
          </mxGeometry>
        </mxCell>
        <mxCell id="kDopP08nSm5VzjpAHeQn-22" value="make the changes on your account" style="whiteSpace=wrap;html=1;" parent="1" vertex="1">
          <mxGeometry x="500" y="5590" width="120" height="40" as="geometry" />
        </mxCell>
        <mxCell id="kDopP08nSm5VzjpAHeQn-23" value="individual repo" style="text;html=1;align=center;verticalAlign=middle;resizable=0;points=[];autosize=1;strokeColor=none;fillColor=none;" parent="1" vertex="1">
          <mxGeometry x="430" y="5545" width="100" height="30" as="geometry" />
        </mxCell>
        <mxCell id="kDopP08nSm5VzjpAHeQn-24" value="fork" style="text;html=1;align=center;verticalAlign=middle;resizable=0;points=[];autosize=1;strokeColor=none;fillColor=none;" parent="1" vertex="1">
          <mxGeometry x="240" y="5595" width="40" height="30" as="geometry" />
        </mxCell>
        <mxCell id="kDopP08nSm5VzjpAHeQn-29" style="edgeStyle=orthogonalEdgeStyle;rounded=0;orthogonalLoop=1;jettySize=auto;html=1;" parent="1" source="kDopP08nSm5VzjpAHeQn-28" edge="1">
          <mxGeometry relative="1" as="geometry">
            <mxPoint x="240" y="5710" as="targetPoint" />
          </mxGeometry>
        </mxCell>
        <mxCell id="kDopP08nSm5VzjpAHeQn-28" value="pull request" style="rounded=0;whiteSpace=wrap;html=1;" parent="1" vertex="1">
          <mxGeometry x="290" y="5680" width="97.5" height="60" as="geometry" />
        </mxCell>
        <mxCell id="kDopP08nSm5VzjpAHeQn-34" style="edgeStyle=orthogonalEdgeStyle;rounded=0;orthogonalLoop=1;jettySize=auto;html=1;" parent="1" source="kDopP08nSm5VzjpAHeQn-30" edge="1">
          <mxGeometry relative="1" as="geometry">
            <mxPoint x="160" y="5660" as="targetPoint" />
          </mxGeometry>
        </mxCell>
        <mxCell id="kDopP08nSm5VzjpAHeQn-30" value="Actor" style="shape=umlActor;verticalLabelPosition=bottom;verticalAlign=top;html=1;outlineConnect=0;" parent="1" vertex="1">
          <mxGeometry x="210" y="5700" width="30" height="60" as="geometry" />
        </mxCell>
        <mxCell id="kDopP08nSm5VzjpAHeQn-33" value="reviewr" style="text;html=1;align=center;verticalAlign=middle;resizable=0;points=[];autosize=1;strokeColor=none;fillColor=none;" parent="1" vertex="1">
          <mxGeometry x="190" y="5785" width="60" height="30" as="geometry" />
        </mxCell>
        <mxCell id="kDopP08nSm5VzjpAHeQn-35" value="approve or deny the code" style="text;html=1;align=center;verticalAlign=middle;resizable=0;points=[];autosize=1;strokeColor=none;fillColor=none;" parent="1" vertex="1">
          <mxGeometry x="40" y="5695" width="160" height="30" as="geometry" />
        </mxCell>
        <mxCell id="kDopP08nSm5VzjpAHeQn-36" value="developer" style="text;html=1;align=center;verticalAlign=middle;resizable=0;points=[];autosize=1;strokeColor=none;fillColor=none;" parent="1" vertex="1">
          <mxGeometry x="520" y="5795" width="80" height="30" as="geometry" />
        </mxCell>
        <mxCell id="kDopP08nSm5VzjpAHeQn-39" value="master" style="text;html=1;align=center;verticalAlign=middle;resizable=0;points=[];autosize=1;strokeColor=none;fillColor=none;" parent="1" vertex="1">
          <mxGeometry x="125" y="5630" width="60" height="30" as="geometry" />
        </mxCell>
        <mxCell id="kDopP08nSm5VzjpAHeQn-41" style="edgeStyle=orthogonalEdgeStyle;rounded=0;orthogonalLoop=1;jettySize=auto;html=1;" parent="1" source="kDopP08nSm5VzjpAHeQn-40" edge="1">
          <mxGeometry relative="1" as="geometry">
            <mxPoint x="270" y="5890" as="targetPoint" />
          </mxGeometry>
        </mxCell>
        <mxCell id="kDopP08nSm5VzjpAHeQn-45" style="edgeStyle=orthogonalEdgeStyle;rounded=0;orthogonalLoop=1;jettySize=auto;html=1;exitX=0.5;exitY=1;exitDx=0;exitDy=0;" parent="1" source="kDopP08nSm5VzjpAHeQn-40" edge="1">
          <mxGeometry relative="1" as="geometry">
            <mxPoint x="89.86206896551721" y="6000" as="targetPoint" />
          </mxGeometry>
        </mxCell>
        <mxCell id="kDopP08nSm5VzjpAHeQn-40" value="build tool" style="whiteSpace=wrap;html=1;" parent="1" vertex="1">
          <mxGeometry x="30" y="5860" width="120" height="60" as="geometry" />
        </mxCell>
        <mxCell id="kDopP08nSm5VzjpAHeQn-43" style="edgeStyle=orthogonalEdgeStyle;rounded=0;orthogonalLoop=1;jettySize=auto;html=1;" parent="1" source="kDopP08nSm5VzjpAHeQn-42" edge="1">
          <mxGeometry relative="1" as="geometry">
            <mxPoint x="550" y="5890" as="targetPoint" />
          </mxGeometry>
        </mxCell>
        <mxCell id="kDopP08nSm5VzjpAHeQn-42" value="qa" style="whiteSpace=wrap;html=1;" parent="1" vertex="1">
          <mxGeometry x="300" y="5860" width="120" height="60" as="geometry" />
        </mxCell>
        <mxCell id="kDopP08nSm5VzjpAHeQn-44" value="s3/databaes/versioncontrl flag" style="whiteSpace=wrap;html=1;" parent="1" vertex="1">
          <mxGeometry x="550" y="5870" width="120" height="60" as="geometry" />
        </mxCell>
        <mxCell id="kDopP08nSm5VzjpAHeQn-47" style="edgeStyle=orthogonalEdgeStyle;rounded=0;orthogonalLoop=1;jettySize=auto;html=1;" parent="1" source="kDopP08nSm5VzjpAHeQn-46" edge="1">
          <mxGeometry relative="1" as="geometry">
            <mxPoint x="360" y="6020" as="targetPoint" />
          </mxGeometry>
        </mxCell>
        <mxCell id="kDopP08nSm5VzjpAHeQn-46" value="" style="whiteSpace=wrap;html=1;" parent="1" vertex="1">
          <mxGeometry x="30" y="5990" width="120" height="60" as="geometry" />
        </mxCell>
        <mxCell id="kDopP08nSm5VzjpAHeQn-49" style="edgeStyle=orthogonalEdgeStyle;rounded=0;orthogonalLoop=1;jettySize=auto;html=1;" parent="1" source="kDopP08nSm5VzjpAHeQn-48" edge="1">
          <mxGeometry relative="1" as="geometry">
            <mxPoint x="570" y="6020" as="targetPoint" />
          </mxGeometry>
        </mxCell>
        <mxCell id="kDopP08nSm5VzjpAHeQn-48" value="prod" style="whiteSpace=wrap;html=1;" parent="1" vertex="1">
          <mxGeometry x="310" y="5990" width="120" height="60" as="geometry" />
        </mxCell>
        <mxCell id="kDopP08nSm5VzjpAHeQn-50" value="vesion" style="whiteSpace=wrap;html=1;" parent="1" vertex="1">
          <mxGeometry x="610" y="5980" width="120" height="60" as="geometry" />
        </mxCell>
        <mxCell id="kDopP08nSm5VzjpAHeQn-51" value="artifactory" style="whiteSpace=wrap;html=1;" parent="1" vertex="1">
          <mxGeometry x="25" y="5760" width="120" height="60" as="geometry" />
        </mxCell>
        <mxCell id="kDopP08nSm5VzjpAHeQn-53" value="storage - whilch maintain - version using s3, nfs. jfrog artifacts tool" style="text;html=1;align=center;verticalAlign=middle;resizable=0;points=[];autosize=1;strokeColor=none;fillColor=none;" parent="1" vertex="1">
          <mxGeometry x="5" y="5820" width="370" height="30" as="geometry" />
        </mxCell>
        <mxCell id="IeVkyHrc4fifQZeHZBUm-1" value="" style="shape=link;html=1;rounded=0;" parent="1" edge="1">
          <mxGeometry width="100" relative="1" as="geometry">
            <mxPoint x="70" y="6090" as="sourcePoint" />
            <mxPoint x="780" y="6080" as="targetPoint" />
          </mxGeometry>
        </mxCell>
        <mxCell id="IeVkyHrc4fifQZeHZBUm-2" value="cloud&amp;nbsp;" style="text;html=1;align=center;verticalAlign=middle;resizable=0;points=[];autosize=1;strokeColor=none;fillColor=none;" parent="1" vertex="1">
          <mxGeometry x="90" y="6130" width="60" height="30" as="geometry" />
        </mxCell>
        <mxCell id="IeVkyHrc4fifQZeHZBUm-3" value="why cloud" style="rounded=1;whiteSpace=wrap;html=1;" parent="1" vertex="1">
          <mxGeometry x="170" y="6160" width="120" height="60" as="geometry" />
        </mxCell>
        <mxCell id="IeVkyHrc4fifQZeHZBUm-4" value="what is cloud" style="whiteSpace=wrap;html=1;" parent="1" vertex="1">
          <mxGeometry x="160" y="6350" width="120" height="60" as="geometry" />
        </mxCell>
        <mxCell id="IeVkyHrc4fifQZeHZBUm-5" value="when is cloud" style="whiteSpace=wrap;html=1;" parent="1" vertex="1">
          <mxGeometry x="160" y="6450" width="120" height="60" as="geometry" />
        </mxCell>
        <mxCell id="IeVkyHrc4fifQZeHZBUm-6" value="Advantages" style="whiteSpace=wrap;html=1;" parent="1" vertex="1">
          <mxGeometry x="160" y="6540" width="120" height="60" as="geometry" />
        </mxCell>
        <mxCell id="IeVkyHrc4fifQZeHZBUm-7" value="Easy Maintance" style="text;html=1;align=center;verticalAlign=middle;resizable=0;points=[];autosize=1;strokeColor=none;fillColor=none;" parent="1" vertex="1">
          <mxGeometry x="300" y="6160" width="110" height="30" as="geometry" />
        </mxCell>
        <mxCell id="IeVkyHrc4fifQZeHZBUm-8" value="Flexiblity" style="text;html=1;align=center;verticalAlign=middle;resizable=0;points=[];autosize=1;strokeColor=none;fillColor=none;" parent="1" vertex="1">
          <mxGeometry x="303.75" y="6190" width="70" height="30" as="geometry" />
        </mxCell>
        <mxCell id="IeVkyHrc4fifQZeHZBUm-9" value="bit high in cost" style="text;html=1;align=center;verticalAlign=middle;resizable=0;points=[];autosize=1;strokeColor=none;fillColor=none;" parent="1" vertex="1">
          <mxGeometry x="315" y="6650" width="100" height="30" as="geometry" />
        </mxCell>
        <mxCell id="IeVkyHrc4fifQZeHZBUm-10" value="High availablity" style="text;html=1;align=center;verticalAlign=middle;resizable=0;points=[];autosize=1;strokeColor=none;fillColor=none;" parent="1" vertex="1">
          <mxGeometry x="300" y="6220" width="100" height="30" as="geometry" />
        </mxCell>
        <mxCell id="IeVkyHrc4fifQZeHZBUm-11" value="security" style="text;html=1;align=center;verticalAlign=middle;resizable=0;points=[];autosize=1;strokeColor=none;fillColor=none;" parent="1" vertex="1">
          <mxGeometry x="415" y="6220" width="60" height="30" as="geometry" />
        </mxCell>
        <mxCell id="IeVkyHrc4fifQZeHZBUm-12" value="Mostly with automated" style="text;html=1;align=center;verticalAlign=middle;resizable=0;points=[];autosize=1;strokeColor=none;fillColor=none;" parent="1" vertex="1">
          <mxGeometry x="415" y="6190" width="140" height="30" as="geometry" />
        </mxCell>
        <mxCell id="IeVkyHrc4fifQZeHZBUm-13" value="scalablity" style="text;html=1;align=center;verticalAlign=middle;resizable=0;points=[];autosize=1;strokeColor=none;fillColor=none;" parent="1" vertex="1">
          <mxGeometry x="445" y="6155" width="70" height="30" as="geometry" />
        </mxCell>
        <mxCell id="IeVkyHrc4fifQZeHZBUm-14" value="api - control" style="text;html=1;align=center;verticalAlign=middle;resizable=0;points=[];autosize=1;strokeColor=none;fillColor=none;" parent="1" vertex="1">
          <mxGeometry x="480" y="6220" width="90" height="30" as="geometry" />
        </mxCell>
        <mxCell id="IeVkyHrc4fifQZeHZBUm-15" value="easy to replicate" style="text;html=1;align=center;verticalAlign=middle;resizable=0;points=[];autosize=1;strokeColor=none;fillColor=none;" parent="1" vertex="1">
          <mxGeometry x="525" y="6145" width="110" height="30" as="geometry" />
        </mxCell>
        <mxCell id="IeVkyHrc4fifQZeHZBUm-16" value="super fast on provisioning &lt;br&gt;and procuring the service" style="text;html=1;align=center;verticalAlign=middle;resizable=0;points=[];autosize=1;strokeColor=none;fillColor=none;" parent="1" vertex="1">
          <mxGeometry x="560" y="6185" width="160" height="40" as="geometry" />
        </mxCell>
        <mxCell id="IeVkyHrc4fifQZeHZBUm-17" value="plateform indipendent" style="text;html=1;align=center;verticalAlign=middle;resizable=0;points=[];autosize=1;strokeColor=none;fillColor=none;" parent="1" vertex="1">
          <mxGeometry x="270" y="6265" width="140" height="30" as="geometry" />
        </mxCell>
        <mxCell id="IeVkyHrc4fifQZeHZBUm-18" value="auditable" style="text;html=1;align=center;verticalAlign=middle;resizable=0;points=[];autosize=1;strokeColor=none;fillColor=none;" parent="1" vertex="1">
          <mxGeometry x="435" y="6265" width="70" height="30" as="geometry" />
        </mxCell>
        <mxCell id="IeVkyHrc4fifQZeHZBUm-19" value="customer support" style="text;html=1;align=center;verticalAlign=middle;resizable=0;points=[];autosize=1;strokeColor=none;fillColor=none;" parent="1" vertex="1">
          <mxGeometry x="510" y="6265" width="120" height="30" as="geometry" />
        </mxCell>
        <mxCell id="IeVkyHrc4fifQZeHZBUm-20" value="certification autorization&amp;nbsp;" style="text;html=1;align=center;verticalAlign=middle;resizable=0;points=[];autosize=1;strokeColor=none;fillColor=none;" parent="1" vertex="1">
          <mxGeometry x="565" y="6235" width="150" height="30" as="geometry" />
        </mxCell>
        <mxCell id="IeVkyHrc4fifQZeHZBUm-21" value="sw - end to end life cycle" style="text;html=1;align=center;verticalAlign=middle;resizable=0;points=[];autosize=1;strokeColor=none;fillColor=none;" parent="1" vertex="1">
          <mxGeometry x="670" y="6265" width="150" height="30" as="geometry" />
        </mxCell>
        <mxCell id="IeVkyHrc4fifQZeHZBUm-22" value="it support most of the business requirement" style="text;html=1;align=center;verticalAlign=middle;resizable=0;points=[];autosize=1;strokeColor=none;fillColor=none;" parent="1" vertex="1">
          <mxGeometry x="285" y="6295" width="250" height="30" as="geometry" />
        </mxCell>
        <mxCell id="IeVkyHrc4fifQZeHZBUm-23" value="keep growing" style="text;html=1;align=center;verticalAlign=middle;resizable=0;points=[];autosize=1;strokeColor=none;fillColor=none;" parent="1" vertex="1">
          <mxGeometry x="575" y="6295" width="90" height="30" as="geometry" />
        </mxCell>
        <mxCell id="IeVkyHrc4fifQZeHZBUm-24" value="Multi region support" style="text;html=1;align=center;verticalAlign=middle;resizable=0;points=[];autosize=1;strokeColor=none;fillColor=none;" parent="1" vertex="1">
          <mxGeometry x="685" y="6295" width="130" height="30" as="geometry" />
        </mxCell>
        <mxCell id="IeVkyHrc4fifQZeHZBUm-25" value="Text" style="text;html=1;align=center;verticalAlign=middle;resizable=0;points=[];autosize=1;strokeColor=none;fillColor=none;" parent="1" vertex="1">
          <mxGeometry x="320" y="6560" width="40" height="20" as="geometry" />
        </mxCell>
        <mxCell id="IeVkyHrc4fifQZeHZBUm-26" value="disadvantages" style="whiteSpace=wrap;html=1;" parent="1" vertex="1">
          <mxGeometry x="165" y="6640" width="120" height="60" as="geometry" />
        </mxCell>
        <mxCell id="IeVkyHrc4fifQZeHZBUm-27" value="multi plateform &lt;br&gt;- module support" style="text;html=1;align=center;verticalAlign=middle;resizable=0;points=[];autosize=1;strokeColor=none;fillColor=none;" parent="1" vertex="1">
          <mxGeometry x="730" y="6210" width="110" height="40" as="geometry" />
        </mxCell>
        <mxCell id="IeVkyHrc4fifQZeHZBUm-28" value="cloud is a plateform - provide virtual environment to set up the infrastructure" style="text;html=1;align=center;verticalAlign=middle;resizable=0;points=[];autosize=1;strokeColor=none;fillColor=none;" parent="1" vertex="1">
          <mxGeometry x="303.75" y="6350" width="430" height="30" as="geometry" />
        </mxCell>
        <mxCell id="IeVkyHrc4fifQZeHZBUm-30" value="mostly - cloud are using shared resources" style="text;html=1;align=center;verticalAlign=middle;resizable=0;points=[];autosize=1;strokeColor=none;fillColor=none;" parent="1" vertex="1">
          <mxGeometry x="315" y="6380" width="250" height="30" as="geometry" />
        </mxCell>
        <mxCell id="IeVkyHrc4fifQZeHZBUm-31" value="shared resources" style="text;html=1;align=center;verticalAlign=middle;resizable=0;points=[];autosize=1;strokeColor=none;fillColor=none;" parent="1" vertex="1">
          <mxGeometry x="700" y="6155" width="120" height="30" as="geometry" />
        </mxCell>
        <mxCell id="IeVkyHrc4fifQZeHZBUm-33" value="depends on the secnario" style="text;html=1;align=center;verticalAlign=middle;resizable=0;points=[];autosize=1;strokeColor=none;fillColor=none;" parent="1" vertex="1">
          <mxGeometry x="310" y="6465" width="150" height="30" as="geometry" />
        </mxCell>
        <mxCell id="IeVkyHrc4fifQZeHZBUm-34" value="- 100 % will use cloud&amp;nbsp;" style="text;html=1;align=center;verticalAlign=middle;resizable=0;points=[];autosize=1;strokeColor=none;fillColor=none;" parent="1" vertex="1">
          <mxGeometry x="505" y="6465" width="140" height="30" as="geometry" />
        </mxCell>
        <mxCell id="IeVkyHrc4fifQZeHZBUm-35" value="100 % will not use cloud" style="text;html=1;align=center;verticalAlign=middle;resizable=0;points=[];autosize=1;strokeColor=none;fillColor=none;" parent="1" vertex="1">
          <mxGeometry x="505" y="6490" width="150" height="30" as="geometry" />
        </mxCell>
        <mxCell id="IeVkyHrc4fifQZeHZBUm-36" value="" style="shape=link;html=1;rounded=0;" parent="1" edge="1">
          <mxGeometry width="100" relative="1" as="geometry">
            <mxPoint x="115" y="6750" as="sourcePoint" />
            <mxPoint x="740" y="6750" as="targetPoint" />
          </mxGeometry>
        </mxCell>
        <mxCell id="IeVkyHrc4fifQZeHZBUm-37" value="Services on cloud" style="text;html=1;align=center;verticalAlign=middle;resizable=0;points=[];autosize=1;strokeColor=none;fillColor=none;" parent="1" vertex="1">
          <mxGeometry x="110" y="6765" width="120" height="30" as="geometry" />
        </mxCell>
        <mxCell id="IeVkyHrc4fifQZeHZBUm-38" value="saas&lt;br&gt;paas&lt;br&gt;daas&lt;br&gt;IAAS" style="text;html=1;align=center;verticalAlign=middle;resizable=0;points=[];autosize=1;strokeColor=none;fillColor=none;" parent="1" vertex="1">
          <mxGeometry x="155" y="6795" width="50" height="70" as="geometry" />
        </mxCell>
        <mxCell id="IeVkyHrc4fifQZeHZBUm-39" value="software as a service" style="text;html=1;align=center;verticalAlign=middle;resizable=0;points=[];autosize=1;strokeColor=none;fillColor=none;" parent="1" vertex="1">
          <mxGeometry x="215" y="6775" width="140" height="30" as="geometry" />
        </mxCell>
        <mxCell id="IeVkyHrc4fifQZeHZBUm-40" value="plateform as a aservice" style="text;html=1;align=center;verticalAlign=middle;resizable=0;points=[];autosize=1;strokeColor=none;fillColor=none;" parent="1" vertex="1">
          <mxGeometry x="215" y="6795" width="150" height="30" as="geometry" />
        </mxCell>
        <mxCell id="IeVkyHrc4fifQZeHZBUm-41" value="Data base as a service" style="text;html=1;align=center;verticalAlign=middle;resizable=0;points=[];autosize=1;strokeColor=none;fillColor=none;" parent="1" vertex="1">
          <mxGeometry x="210" y="6820" width="150" height="30" as="geometry" />
        </mxCell>
        <mxCell id="IeVkyHrc4fifQZeHZBUm-42" value="Infrastructure as a service" style="text;html=1;align=center;verticalAlign=middle;resizable=0;points=[];autosize=1;strokeColor=none;fillColor=none;" parent="1" vertex="1">
          <mxGeometry x="213.75" y="6845" width="160" height="30" as="geometry" />
        </mxCell>
        <mxCell id="IeVkyHrc4fifQZeHZBUm-43" value="Storage as a service" style="text;html=1;align=center;verticalAlign=middle;resizable=0;points=[];autosize=1;strokeColor=none;fillColor=none;" parent="1" vertex="1">
          <mxGeometry x="400" y="6775" width="130" height="30" as="geometry" />
        </mxCell>
        <mxCell id="_RbbQd035BLWp0UyQ3jn-1" value="" style="shape=link;html=1;rounded=0;" parent="1" edge="1">
          <mxGeometry width="100" relative="1" as="geometry">
            <mxPoint x="102.5" y="6900" as="sourcePoint" />
            <mxPoint x="727.5" y="6900" as="targetPoint" />
          </mxGeometry>
        </mxCell>
        <mxCell id="_RbbQd035BLWp0UyQ3jn-2" value="region specific resource&amp;nbsp;" style="text;html=1;align=center;verticalAlign=middle;resizable=0;points=[];autosize=1;strokeColor=none;fillColor=none;" parent="1" vertex="1">
          <mxGeometry x="185" y="6925" width="150" height="30" as="geometry" />
        </mxCell>
        <mxCell id="_RbbQd035BLWp0UyQ3jn-3" value="generic resource - account level" style="text;html=1;align=center;verticalAlign=middle;resizable=0;points=[];autosize=1;strokeColor=none;fillColor=none;" parent="1" vertex="1">
          <mxGeometry x="455" y="6925" width="190" height="30" as="geometry" />
        </mxCell>
        <mxCell id="_RbbQd035BLWp0UyQ3jn-4" value="ec2" style="whiteSpace=wrap;html=1;" parent="1" vertex="1">
          <mxGeometry x="190" y="7010" width="120" height="60" as="geometry" />
        </mxCell>
        <mxCell id="_RbbQd035BLWp0UyQ3jn-5" value="iam" style="text;html=1;align=center;verticalAlign=middle;resizable=0;points=[];autosize=1;strokeColor=none;fillColor=none;" parent="1" vertex="1">
          <mxGeometry x="530" y="7010" width="40" height="30" as="geometry" />
        </mxCell>
        <mxCell id="_RbbQd035BLWp0UyQ3jn-6" value="loadbalancer" style="whiteSpace=wrap;html=1;" parent="1" vertex="1">
          <mxGeometry x="195" y="7120" width="120" height="60" as="geometry" />
        </mxCell>
        <mxCell id="_RbbQd035BLWp0UyQ3jn-7" value="cloud trial" style="whiteSpace=wrap;html=1;" parent="1" vertex="1">
          <mxGeometry x="515" y="7110" width="120" height="60" as="geometry" />
        </mxCell>
        <mxCell id="_RbbQd035BLWp0UyQ3jn-8" value="auid" style="text;html=1;align=center;verticalAlign=middle;resizable=0;points=[];autosize=1;strokeColor=none;fillColor=none;" parent="1" vertex="1">
          <mxGeometry x="631" y="7070" width="50" height="30" as="geometry" />
        </mxCell>
        <mxCell id="_RbbQd035BLWp0UyQ3jn-9" value="support" style="text;html=1;align=center;verticalAlign=middle;resizable=0;points=[];autosize=1;strokeColor=none;fillColor=none;" parent="1" vertex="1">
          <mxGeometry x="625" y="7010" width="60" height="30" as="geometry" />
        </mxCell>
        <mxCell id="_RbbQd035BLWp0UyQ3jn-10" value="volume" style="whiteSpace=wrap;html=1;" parent="1" vertex="1">
          <mxGeometry x="195" y="7220" width="120" height="60" as="geometry" />
        </mxCell>
        <mxCell id="_RbbQd035BLWp0UyQ3jn-11" value="s3" style="whiteSpace=wrap;html=1;" parent="1" vertex="1">
          <mxGeometry x="200" y="7320" width="120" height="60" as="geometry" />
        </mxCell>
        <mxCell id="_RbbQd035BLWp0UyQ3jn-12" value="its a bucket solution - object level store" style="text;html=1;align=center;verticalAlign=middle;resizable=0;points=[];autosize=1;strokeColor=none;fillColor=none;" parent="1" vertex="1">
          <mxGeometry x="325" y="7335" width="230" height="30" as="geometry" />
        </mxCell>
        <mxCell id="_RbbQd035BLWp0UyQ3jn-13" value="folder" style="text;html=1;align=center;verticalAlign=middle;resizable=0;points=[];autosize=1;strokeColor=none;fillColor=none;" parent="1" vertex="1">
          <mxGeometry x="337.5" y="7365" width="50" height="30" as="geometry" />
        </mxCell>
        <mxCell id="_RbbQd035BLWp0UyQ3jn-14" value="vpc" style="whiteSpace=wrap;html=1;" parent="1" vertex="1">
          <mxGeometry x="200" y="7420" width="120" height="60" as="geometry" />
        </mxCell>
        <mxCell id="_RbbQd035BLWp0UyQ3jn-15" value="what is region" style="text;html=1;align=center;verticalAlign=middle;resizable=0;points=[];autosize=1;strokeColor=none;fillColor=none;" parent="1" vertex="1">
          <mxGeometry x="30" y="6975" width="100" height="30" as="geometry" />
        </mxCell>
        <mxCell id="_RbbQd035BLWp0UyQ3jn-16" value="region" style="ellipse;whiteSpace=wrap;html=1;" parent="1" vertex="1">
          <mxGeometry x="245" y="7570" width="120" height="60" as="geometry" />
        </mxCell>
        <mxCell id="_RbbQd035BLWp0UyQ3jn-17" value="aws supports multi region support" style="text;html=1;align=center;verticalAlign=middle;resizable=0;points=[];autosize=1;strokeColor=none;fillColor=none;" parent="1" vertex="1">
          <mxGeometry x="410" y="7585" width="200" height="30" as="geometry" />
        </mxCell>
        <mxCell id="_RbbQd035BLWp0UyQ3jn-18" value="us" style="whiteSpace=wrap;html=1;" parent="1" vertex="1">
          <mxGeometry x="60" y="7670" width="120" height="60" as="geometry" />
        </mxCell>
        <mxCell id="_RbbQd035BLWp0UyQ3jn-19" value="europe" style="whiteSpace=wrap;html=1;" parent="1" vertex="1">
          <mxGeometry x="255" y="7670" width="120" height="60" as="geometry" />
        </mxCell>
        <mxCell id="_RbbQd035BLWp0UyQ3jn-20" value="tokio" style="whiteSpace=wrap;html=1;" parent="1" vertex="1">
          <mxGeometry x="455" y="7670" width="120" height="60" as="geometry" />
        </mxCell>
        <mxCell id="_RbbQd035BLWp0UyQ3jn-21" value="s america" style="whiteSpace=wrap;html=1;" parent="1" vertex="1">
          <mxGeometry x="630" y="7680" width="120" height="60" as="geometry" />
        </mxCell>
        <mxCell id="_RbbQd035BLWp0UyQ3jn-22" value="chaina" style="text;html=1;align=center;verticalAlign=middle;resizable=0;points=[];autosize=1;strokeColor=none;fillColor=none;" parent="1" vertex="1">
          <mxGeometry x="733.75" y="7520" width="60" height="30" as="geometry" />
        </mxCell>
        <mxCell id="_RbbQd035BLWp0UyQ3jn-23" value="route53" style="text;html=1;align=center;verticalAlign=middle;resizable=0;points=[];autosize=1;strokeColor=none;fillColor=none;" parent="1" vertex="1">
          <mxGeometry x="530" y="7205" width="60" height="30" as="geometry" />
        </mxCell>
        <mxCell id="XH81sweP_0PnuOsCx2_g-1" value="" style="shape=link;html=1;rounded=0;" parent="1" edge="1">
          <mxGeometry width="100" relative="1" as="geometry">
            <mxPoint x="125" y="7810" as="sourcePoint" />
            <mxPoint x="750" y="7800" as="targetPoint" />
          </mxGeometry>
        </mxCell>
        <mxCell id="XH81sweP_0PnuOsCx2_g-2" value="compute section" style="text;html=1;align=center;verticalAlign=middle;resizable=0;points=[];autosize=1;strokeColor=none;fillColor=none;" parent="1" vertex="1">
          <mxGeometry x="45" y="7855" width="110" height="30" as="geometry" />
        </mxCell>
        <mxCell id="XH81sweP_0PnuOsCx2_g-3" value="region" style="text;html=1;align=center;verticalAlign=middle;resizable=0;points=[];autosize=1;strokeColor=none;fillColor=none;" parent="1" vertex="1">
          <mxGeometry x="110" y="7900" width="60" height="30" as="geometry" />
        </mxCell>
        <mxCell id="XH81sweP_0PnuOsCx2_g-4" value="availablity zones" style="text;html=1;align=center;verticalAlign=middle;resizable=0;points=[];autosize=1;strokeColor=none;fillColor=none;" parent="1" vertex="1">
          <mxGeometry x="100" y="7930" width="110" height="30" as="geometry" />
        </mxCell>
        <mxCell id="XH81sweP_0PnuOsCx2_g-5" value="ami" style="text;html=1;align=center;verticalAlign=middle;resizable=0;points=[];autosize=1;strokeColor=none;fillColor=none;" parent="1" vertex="1">
          <mxGeometry x="120" y="7990" width="40" height="30" as="geometry" />
        </mxCell>
        <mxCell id="XH81sweP_0PnuOsCx2_g-6" value="security groups" style="text;html=1;align=center;verticalAlign=middle;resizable=0;points=[];autosize=1;strokeColor=none;fillColor=none;" parent="1" vertex="1">
          <mxGeometry x="100" y="8060" width="100" height="30" as="geometry" />
        </mxCell>
        <mxCell id="XH81sweP_0PnuOsCx2_g-7" value="instance type" style="text;html=1;align=center;verticalAlign=middle;resizable=0;points=[];autosize=1;strokeColor=none;fillColor=none;" parent="1" vertex="1">
          <mxGeometry x="100" y="8020" width="90" height="30" as="geometry" />
        </mxCell>
        <mxCell id="XH81sweP_0PnuOsCx2_g-8" value="vpc" style="text;html=1;align=center;verticalAlign=middle;resizable=0;points=[];autosize=1;strokeColor=none;fillColor=none;" parent="1" vertex="1">
          <mxGeometry x="120" y="7955" width="40" height="30" as="geometry" />
        </mxCell>
        <mxCell id="XH81sweP_0PnuOsCx2_g-9" value="us-east-1&lt;br&gt;us-west-2&lt;br&gt;ap-southeast-1&lt;br&gt;ew-west-1" style="text;html=1;align=center;verticalAlign=middle;resizable=0;points=[];autosize=1;strokeColor=none;fillColor=none;" parent="1" vertex="1">
          <mxGeometry x="645" y="7800" width="100" height="70" as="geometry" />
        </mxCell>
        <mxCell id="XH81sweP_0PnuOsCx2_g-10" value="vpc" style="whiteSpace=wrap;html=1;aspect=fixed;" parent="1" vertex="1">
          <mxGeometry x="280" y="7910" width="330" height="330" as="geometry" />
        </mxCell>
        <mxCell id="XH81sweP_0PnuOsCx2_g-11" value="AWS" style="text;html=1;align=center;verticalAlign=middle;resizable=0;points=[];autosize=1;strokeColor=none;fillColor=none;" parent="1" vertex="1">
          <mxGeometry x="415" y="7855" width="50" height="30" as="geometry" />
        </mxCell>
        <mxCell id="XH81sweP_0PnuOsCx2_g-12" value="us-east-1" style="text;html=1;align=center;verticalAlign=middle;resizable=0;points=[];autosize=1;strokeColor=none;fillColor=none;" parent="1" vertex="1">
          <mxGeometry x="475" y="7865" width="70" height="30" as="geometry" />
        </mxCell>
        <mxCell id="XH81sweP_0PnuOsCx2_g-14" value="autoscaling group" style="text;html=1;align=center;verticalAlign=middle;resizable=0;points=[];autosize=1;strokeColor=none;fillColor=none;" parent="1" vertex="1">
          <mxGeometry x="645" y="7900" width="120" height="30" as="geometry" />
        </mxCell>
        <mxCell id="XH81sweP_0PnuOsCx2_g-20" value="" style="rounded=0;whiteSpace=wrap;html=1;" parent="1" vertex="1">
          <mxGeometry x="300" y="7940" width="260" height="290" as="geometry" />
        </mxCell>
        <mxCell id="XH81sweP_0PnuOsCx2_g-17" value="az1" style="whiteSpace=wrap;html=1;" parent="1" vertex="1">
          <mxGeometry x="680" y="8020" width="120" height="60" as="geometry" />
        </mxCell>
        <mxCell id="XH81sweP_0PnuOsCx2_g-18" value="aws managed vpc - default vpc" style="text;html=1;align=center;verticalAlign=middle;resizable=0;points=[];autosize=1;strokeColor=none;fillColor=none;" parent="1" vertex="1">
          <mxGeometry x="45" y="8145" width="190" height="30" as="geometry" />
        </mxCell>
        <mxCell id="XH81sweP_0PnuOsCx2_g-19" value="custome vpc - project vpc" style="text;html=1;align=center;verticalAlign=middle;resizable=0;points=[];autosize=1;strokeColor=none;fillColor=none;" parent="1" vertex="1">
          <mxGeometry x="50" y="8190" width="160" height="30" as="geometry" />
        </mxCell>
        <mxCell id="XH81sweP_0PnuOsCx2_g-21" value="ec2 - one az1" style="rounded=0;whiteSpace=wrap;html=1;" parent="1" vertex="1">
          <mxGeometry x="320" y="7985" width="120" height="60" as="geometry" />
        </mxCell>
        <mxCell id="XH81sweP_0PnuOsCx2_g-22" value="vpc" style="text;html=1;align=center;verticalAlign=middle;resizable=0;points=[];autosize=1;strokeColor=none;fillColor=none;" parent="1" vertex="1">
          <mxGeometry x="330" y="7910" width="40" height="30" as="geometry" />
        </mxCell>
        <mxCell id="XH81sweP_0PnuOsCx2_g-23" value="Instance type" style="text;html=1;align=center;verticalAlign=middle;resizable=0;points=[];autosize=1;strokeColor=none;fillColor=none;" parent="1" vertex="1">
          <mxGeometry x="105" y="8275" width="90" height="30" as="geometry" />
        </mxCell>
        <mxCell id="XH81sweP_0PnuOsCx2_g-24" value="AMI" style="text;html=1;align=center;verticalAlign=middle;resizable=0;points=[];autosize=1;strokeColor=none;fillColor=none;" parent="1" vertex="1">
          <mxGeometry x="375" y="8270" width="40" height="30" as="geometry" />
        </mxCell>
        <mxCell id="XH81sweP_0PnuOsCx2_g-25" value="capacity of the instance" style="text;html=1;align=center;verticalAlign=middle;resizable=0;points=[];autosize=1;strokeColor=none;fillColor=none;" parent="1" vertex="1">
          <mxGeometry x="90" y="8305" width="150" height="30" as="geometry" />
        </mxCell>
        <mxCell id="XH81sweP_0PnuOsCx2_g-26" value="configuration of the instance" style="text;html=1;align=center;verticalAlign=middle;resizable=0;points=[];autosize=1;strokeColor=none;fillColor=none;" parent="1" vertex="1">
          <mxGeometry x="85" y="8335" width="170" height="30" as="geometry" />
        </mxCell>
        <mxCell id="XH81sweP_0PnuOsCx2_g-27" value="number of cpu, memory, storage, network" style="text;html=1;align=center;verticalAlign=middle;resizable=0;points=[];autosize=1;strokeColor=none;fillColor=none;" parent="1" vertex="1">
          <mxGeometry x="55" y="8365" width="240" height="30" as="geometry" />
        </mxCell>
        <mxCell id="XH81sweP_0PnuOsCx2_g-28" value="Amazon Managed Image" style="text;html=1;align=center;verticalAlign=middle;resizable=0;points=[];autosize=1;strokeColor=none;fillColor=none;" parent="1" vertex="1">
          <mxGeometry x="350" y="8305" width="160" height="30" as="geometry" />
        </mxCell>
        <mxCell id="XH81sweP_0PnuOsCx2_g-29" value="OS, Snapshopt - amazon image, centos, debian, windows" style="text;html=1;align=center;verticalAlign=middle;resizable=0;points=[];autosize=1;strokeColor=none;fillColor=none;" parent="1" vertex="1">
          <mxGeometry x="330" y="8335" width="330" height="30" as="geometry" />
        </mxCell>
        <mxCell id="XH81sweP_0PnuOsCx2_g-30" value="some of them are free, some of them need license cost,&amp;nbsp;" style="text;html=1;align=center;verticalAlign=middle;resizable=0;points=[];autosize=1;strokeColor=none;fillColor=none;" parent="1" vertex="1">
          <mxGeometry x="325" y="8365" width="320" height="30" as="geometry" />
        </mxCell>
        <mxCell id="XH81sweP_0PnuOsCx2_g-31" value="some of the ami are dependent to instance type - hardware specific" style="text;html=1;align=center;verticalAlign=middle;resizable=0;points=[];autosize=1;strokeColor=none;fillColor=none;" parent="1" vertex="1">
          <mxGeometry x="315" y="8395" width="380" height="30" as="geometry" />
        </mxCell>
        <mxCell id="XH81sweP_0PnuOsCx2_g-32" value="naming convention for instance type&amp;nbsp;" style="text;html=1;align=center;verticalAlign=middle;resizable=0;points=[];autosize=1;strokeColor=none;fillColor=none;" parent="1" vertex="1">
          <mxGeometry x="70" y="8425" width="220" height="30" as="geometry" />
        </mxCell>
        <mxCell id="XH81sweP_0PnuOsCx2_g-33" value="t2.micro - free&amp;nbsp;" style="text;html=1;align=center;verticalAlign=middle;resizable=0;points=[];autosize=1;strokeColor=none;fillColor=none;" parent="1" vertex="1">
          <mxGeometry x="85" y="8455" width="100" height="30" as="geometry" />
        </mxCell>
        <mxCell id="XH81sweP_0PnuOsCx2_g-34" value="m4.large, m4.xlarge&amp;nbsp;" style="text;html=1;align=center;verticalAlign=middle;resizable=0;points=[];autosize=1;strokeColor=none;fillColor=none;" parent="1" vertex="1">
          <mxGeometry x="85" y="8480" width="130" height="30" as="geometry" />
        </mxCell>
        <mxCell id="XH81sweP_0PnuOsCx2_g-36" value="autoscalling group - launch configuration or launc template" style="rounded=0;whiteSpace=wrap;html=1;" parent="1" vertex="1">
          <mxGeometry x="70" y="8580" width="600" height="60" as="geometry" />
        </mxCell>
        <mxCell id="XH81sweP_0PnuOsCx2_g-44" style="edgeStyle=orthogonalEdgeStyle;rounded=0;orthogonalLoop=1;jettySize=auto;html=1;" parent="1" source="XH81sweP_0PnuOsCx2_g-37" edge="1">
          <mxGeometry relative="1" as="geometry">
            <mxPoint x="200" y="8780" as="targetPoint" />
            <Array as="points">
              <mxPoint x="195" y="8740" />
              <mxPoint x="200" y="8740" />
            </Array>
          </mxGeometry>
        </mxCell>
        <mxCell id="XH81sweP_0PnuOsCx2_g-37" value="az1" style="whiteSpace=wrap;html=1;" parent="1" vertex="1">
          <mxGeometry x="135" y="8670" width="120" height="50" as="geometry" />
        </mxCell>
        <mxCell id="XH81sweP_0PnuOsCx2_g-38" value="az2- getting down" style="whiteSpace=wrap;html=1;" parent="1" vertex="1">
          <mxGeometry x="325" y="8850" width="120" height="60" as="geometry" />
        </mxCell>
        <mxCell id="XH81sweP_0PnuOsCx2_g-45" style="edgeStyle=orthogonalEdgeStyle;rounded=0;orthogonalLoop=1;jettySize=auto;html=1;" parent="1" source="XH81sweP_0PnuOsCx2_g-39" edge="1">
          <mxGeometry relative="1" as="geometry">
            <mxPoint x="560" y="8780" as="targetPoint" />
          </mxGeometry>
        </mxCell>
        <mxCell id="XH81sweP_0PnuOsCx2_g-39" value="az3" style="whiteSpace=wrap;html=1;" parent="1" vertex="1">
          <mxGeometry x="490" y="8670" width="120" height="60" as="geometry" />
        </mxCell>
        <mxCell id="XH81sweP_0PnuOsCx2_g-41" value="az2" style="whiteSpace=wrap;html=1;" parent="1" vertex="1">
          <mxGeometry x="310" y="8670" width="120" height="60" as="geometry" />
        </mxCell>
        <mxCell id="XH81sweP_0PnuOsCx2_g-42" value="termination" style="text;html=1;align=center;verticalAlign=middle;resizable=0;points=[];autosize=1;strokeColor=none;fillColor=none;" parent="1" vertex="1">
          <mxGeometry x="440" y="8865" width="80" height="30" as="geometry" />
        </mxCell>
        <mxCell id="XH81sweP_0PnuOsCx2_g-43" value="available in 5" style="text;html=1;align=center;verticalAlign=middle;resizable=0;points=[];autosize=1;strokeColor=none;fillColor=none;" parent="1" vertex="1">
          <mxGeometry x="325" y="8745" width="90" height="30" as="geometry" />
        </mxCell>
        <mxCell id="XH81sweP_0PnuOsCx2_g-47" value="min and max" style="text;html=1;align=center;verticalAlign=middle;resizable=0;points=[];autosize=1;strokeColor=none;fillColor=none;" parent="1" vertex="1">
          <mxGeometry x="335" y="8640" width="90" height="30" as="geometry" />
        </mxCell>
        <mxCell id="pgjIFrwkVdKyfw6UxguU-1" value="" style="shape=link;html=1;rounded=0;" parent="1" edge="1">
          <mxGeometry width="100" relative="1" as="geometry">
            <mxPoint x="70" y="8980" as="sourcePoint" />
            <mxPoint x="820" y="8970" as="targetPoint" />
          </mxGeometry>
        </mxCell>
        <mxCell id="pgjIFrwkVdKyfw6UxguU-2" value="Egress" style="text;html=1;align=center;verticalAlign=middle;resizable=0;points=[];autosize=1;strokeColor=none;fillColor=none;" parent="1" vertex="1">
          <mxGeometry x="410" y="9020" width="60" height="30" as="geometry" />
        </mxCell>
        <mxCell id="pgjIFrwkVdKyfw6UxguU-3" value="ingress" style="text;html=1;align=center;verticalAlign=middle;resizable=0;points=[];autosize=1;strokeColor=none;fillColor=none;" parent="1" vertex="1">
          <mxGeometry x="520" y="9020" width="60" height="30" as="geometry" />
        </mxCell>
        <mxCell id="pgjIFrwkVdKyfw6UxguU-6" style="edgeStyle=orthogonalEdgeStyle;rounded=0;orthogonalLoop=1;jettySize=auto;html=1;entryX=0.017;entryY=0.367;entryDx=0;entryDy=0;entryPerimeter=0;" parent="1" source="pgjIFrwkVdKyfw6UxguU-4" target="pgjIFrwkVdKyfw6UxguU-5" edge="1">
          <mxGeometry relative="1" as="geometry">
            <mxPoint x="340" y="9110" as="targetPoint" />
          </mxGeometry>
        </mxCell>
        <mxCell id="pgjIFrwkVdKyfw6UxguU-4" value="branch a" style="rounded=0;whiteSpace=wrap;html=1;" parent="1" vertex="1">
          <mxGeometry x="180" y="9080" width="120" height="60" as="geometry" />
        </mxCell>
        <mxCell id="pgjIFrwkVdKyfw6UxguU-5" value="branch b comp" style="whiteSpace=wrap;html=1;" parent="1" vertex="1">
          <mxGeometry x="655" y="9090" width="120" height="60" as="geometry" />
        </mxCell>
        <mxCell id="pgjIFrwkVdKyfw6UxguU-7" value="port 80" style="text;html=1;align=center;verticalAlign=middle;resizable=0;points=[];autosize=1;strokeColor=none;fillColor=none;" parent="1" vertex="1">
          <mxGeometry x="680" y="9185" width="60" height="30" as="geometry" />
        </mxCell>
        <mxCell id="pgjIFrwkVdKyfw6UxguU-8" value="egress" style="text;html=1;align=center;verticalAlign=middle;resizable=0;points=[];autosize=1;strokeColor=none;fillColor=none;" parent="1" vertex="1">
          <mxGeometry x="310" y="9085" width="60" height="30" as="geometry" />
        </mxCell>
        <mxCell id="pgjIFrwkVdKyfw6UxguU-9" value="ingress" style="text;html=1;align=center;verticalAlign=middle;resizable=0;points=[];autosize=1;strokeColor=none;fillColor=none;" parent="1" vertex="1">
          <mxGeometry x="600" y="9075" width="60" height="30" as="geometry" />
        </mxCell>
        <mxCell id="pgjIFrwkVdKyfw6UxguU-10" value="outbound" style="text;html=1;align=center;verticalAlign=middle;resizable=0;points=[];autosize=1;strokeColor=none;fillColor=none;" parent="1" vertex="1">
          <mxGeometry x="305" y="9115" width="70" height="30" as="geometry" />
        </mxCell>
        <mxCell id="pgjIFrwkVdKyfw6UxguU-11" value="inbound" style="text;html=1;align=center;verticalAlign=middle;resizable=0;points=[];autosize=1;strokeColor=none;fillColor=none;" parent="1" vertex="1">
          <mxGeometry x="595" y="9115" width="70" height="30" as="geometry" />
        </mxCell>
        <mxCell id="pgjIFrwkVdKyfw6UxguU-31" style="edgeStyle=orthogonalEdgeStyle;rounded=0;orthogonalLoop=1;jettySize=auto;html=1;exitX=0.25;exitY=1;exitDx=0;exitDy=0;entryX=0.152;entryY=0;entryDx=0;entryDy=0;entryPerimeter=0;" parent="1" source="pgjIFrwkVdKyfw6UxguU-12" target="pgjIFrwkVdKyfw6UxguU-26" edge="1">
          <mxGeometry relative="1" as="geometry" />
        </mxCell>
        <mxCell id="pgjIFrwkVdKyfw6UxguU-12" value="" style="whiteSpace=wrap;html=1;" parent="1" vertex="1">
          <mxGeometry x="183.75" y="9220" width="120" height="60" as="geometry" />
        </mxCell>
        <mxCell id="pgjIFrwkVdKyfw6UxguU-13" value="ssh" style="text;html=1;align=center;verticalAlign=middle;resizable=0;points=[];autosize=1;strokeColor=none;fillColor=none;" parent="1" vertex="1">
          <mxGeometry x="310" y="9215" width="40" height="30" as="geometry" />
        </mxCell>
        <mxCell id="pgjIFrwkVdKyfw6UxguU-14" value="22" style="text;html=1;align=center;verticalAlign=middle;resizable=0;points=[];autosize=1;strokeColor=none;fillColor=none;" parent="1" vertex="1">
          <mxGeometry x="315" y="9240" width="40" height="30" as="geometry" />
        </mxCell>
        <mxCell id="pgjIFrwkVdKyfw6UxguU-16" value="Actor" style="shape=umlActor;verticalLabelPosition=bottom;verticalAlign=top;html=1;outlineConnect=0;" parent="1" vertex="1">
          <mxGeometry x="220" y="9620" width="30" height="60" as="geometry" />
        </mxCell>
        <mxCell id="pgjIFrwkVdKyfw6UxguU-22" value="" style="edgeStyle=orthogonalEdgeStyle;rounded=0;orthogonalLoop=1;jettySize=auto;html=1;" parent="1" source="pgjIFrwkVdKyfw6UxguU-17" target="pgjIFrwkVdKyfw6UxguU-21" edge="1">
          <mxGeometry relative="1" as="geometry" />
        </mxCell>
        <mxCell id="pgjIFrwkVdKyfw6UxguU-17" value="laptop" style="whiteSpace=wrap;html=1;" parent="1" vertex="1">
          <mxGeometry x="275" y="9590" width="120" height="60" as="geometry" />
        </mxCell>
        <mxCell id="pgjIFrwkVdKyfw6UxguU-18" value="firewall" style="text;html=1;align=center;verticalAlign=middle;resizable=0;points=[];autosize=1;strokeColor=none;fillColor=none;" parent="1" vertex="1">
          <mxGeometry x="295" y="9665" width="60" height="30" as="geometry" />
        </mxCell>
        <mxCell id="pgjIFrwkVdKyfw6UxguU-19" value="iptables" style="text;html=1;align=center;verticalAlign=middle;resizable=0;points=[];autosize=1;strokeColor=none;fillColor=none;" parent="1" vertex="1">
          <mxGeometry x="295" y="9680" width="60" height="30" as="geometry" />
        </mxCell>
        <mxCell id="pgjIFrwkVdKyfw6UxguU-20" value="firewall" style="text;html=1;align=center;verticalAlign=middle;resizable=0;points=[];autosize=1;strokeColor=none;fillColor=none;" parent="1" vertex="1">
          <mxGeometry x="395" y="9665" width="60" height="30" as="geometry" />
        </mxCell>
        <mxCell id="pgjIFrwkVdKyfw6UxguU-27" style="edgeStyle=orthogonalEdgeStyle;rounded=0;orthogonalLoop=1;jettySize=auto;html=1;" parent="1" source="pgjIFrwkVdKyfw6UxguU-21" target="pgjIFrwkVdKyfw6UxguU-26" edge="1">
          <mxGeometry relative="1" as="geometry" />
        </mxCell>
        <mxCell id="pgjIFrwkVdKyfw6UxguU-33" style="edgeStyle=orthogonalEdgeStyle;rounded=0;orthogonalLoop=1;jettySize=auto;html=1;exitX=0.25;exitY=1;exitDx=0;exitDy=0;entryX=0.192;entryY=-0.017;entryDx=0;entryDy=0;entryPerimeter=0;" parent="1" source="pgjIFrwkVdKyfw6UxguU-21" target="pgjIFrwkVdKyfw6UxguU-17" edge="1">
          <mxGeometry relative="1" as="geometry" />
        </mxCell>
        <mxCell id="pgjIFrwkVdKyfw6UxguU-21" value="firewall network device / security device" style="whiteSpace=wrap;html=1;" parent="1" vertex="1">
          <mxGeometry x="185" y="9470" width="460" height="60" as="geometry" />
        </mxCell>
        <mxCell id="pgjIFrwkVdKyfw6UxguU-24" value="outbound" style="text;html=1;align=center;verticalAlign=middle;resizable=0;points=[];autosize=1;strokeColor=none;fillColor=none;" parent="1" vertex="1">
          <mxGeometry x="410" y="9555" width="70" height="30" as="geometry" />
        </mxCell>
        <mxCell id="pgjIFrwkVdKyfw6UxguU-25" value="inbound" style="text;html=1;align=center;verticalAlign=middle;resizable=0;points=[];autosize=1;strokeColor=none;fillColor=none;" parent="1" vertex="1">
          <mxGeometry x="405" y="9270" width="70" height="30" as="geometry" />
        </mxCell>
        <mxCell id="pgjIFrwkVdKyfw6UxguU-28" style="edgeStyle=orthogonalEdgeStyle;rounded=0;orthogonalLoop=1;jettySize=auto;html=1;entryX=0.435;entryY=1.05;entryDx=0;entryDy=0;entryPerimeter=0;" parent="1" source="pgjIFrwkVdKyfw6UxguU-26" target="pgjIFrwkVdKyfw6UxguU-12" edge="1">
          <mxGeometry relative="1" as="geometry" />
        </mxCell>
        <mxCell id="pgjIFrwkVdKyfw6UxguU-32" style="edgeStyle=orthogonalEdgeStyle;rounded=0;orthogonalLoop=1;jettySize=auto;html=1;exitX=0.25;exitY=1;exitDx=0;exitDy=0;entryX=0.27;entryY=0.033;entryDx=0;entryDy=0;entryPerimeter=0;" parent="1" source="pgjIFrwkVdKyfw6UxguU-26" target="pgjIFrwkVdKyfw6UxguU-21" edge="1">
          <mxGeometry relative="1" as="geometry" />
        </mxCell>
        <mxCell id="pgjIFrwkVdKyfw6UxguU-26" value="firewall" style="rounded=0;whiteSpace=wrap;html=1;" parent="1" vertex="1">
          <mxGeometry x="140" y="9310" width="480" height="60" as="geometry" />
        </mxCell>
        <mxCell id="pgjIFrwkVdKyfw6UxguU-29" value="3 way handshake" style="text;html=1;align=center;verticalAlign=middle;resizable=0;points=[];autosize=1;strokeColor=none;fillColor=none;" parent="1" vertex="1">
          <mxGeometry x="650" y="9415" width="120" height="30" as="geometry" />
        </mxCell>
        <mxCell id="pgjIFrwkVdKyfw6UxguU-30" value="arp protocol -&amp;nbsp;" style="text;html=1;align=center;verticalAlign=middle;resizable=0;points=[];autosize=1;strokeColor=none;fillColor=none;" parent="1" vertex="1">
          <mxGeometry x="660" y="9485" width="100" height="30" as="geometry" />
        </mxCell>
        <mxCell id="pgjIFrwkVdKyfw6UxguU-34" value="inbound" style="text;html=1;align=center;verticalAlign=middle;resizable=0;points=[];autosize=1;strokeColor=none;fillColor=none;" parent="1" vertex="1">
          <mxGeometry x="225" y="9545" width="70" height="30" as="geometry" />
        </mxCell>
        <mxCell id="pgjIFrwkVdKyfw6UxguU-35" value="outbound" style="text;html=1;align=center;verticalAlign=middle;resizable=0;points=[];autosize=1;strokeColor=none;fillColor=none;" parent="1" vertex="1">
          <mxGeometry x="125" y="9275" width="70" height="30" as="geometry" />
        </mxCell>
        <mxCell id="pgjIFrwkVdKyfw6UxguU-36" value="for port 22" style="text;html=1;align=center;verticalAlign=middle;resizable=0;points=[];autosize=1;strokeColor=none;fillColor=none;" parent="1" vertex="1">
          <mxGeometry x="240" y="9500" width="80" height="30" as="geometry" />
        </mxCell>
        <mxCell id="pgjIFrwkVdKyfw6UxguU-37" value="" style="shape=link;html=1;rounded=0;" parent="1" edge="1">
          <mxGeometry width="100" relative="1" as="geometry">
            <mxPoint x="30" y="9750" as="sourcePoint" />
            <mxPoint x="770" y="9750" as="targetPoint" />
          </mxGeometry>
        </mxCell>
        <mxCell id="pgjIFrwkVdKyfw6UxguU-38" value="public ip" style="rounded=0;whiteSpace=wrap;html=1;" parent="1" vertex="1">
          <mxGeometry x="205" y="9790" width="120" height="60" as="geometry" />
        </mxCell>
        <mxCell id="pgjIFrwkVdKyfw6UxguU-39" value="elastic ip" style="whiteSpace=wrap;html=1;" parent="1" vertex="1">
          <mxGeometry x="460" y="9790" width="120" height="60" as="geometry" />
        </mxCell>
        <mxCell id="pgjIFrwkVdKyfw6UxguU-40" value="its not constant" style="text;html=1;align=center;verticalAlign=middle;resizable=0;points=[];autosize=1;strokeColor=none;fillColor=none;" parent="1" vertex="1">
          <mxGeometry x="170" y="9855" width="100" height="30" as="geometry" />
        </mxCell>
        <mxCell id="pgjIFrwkVdKyfw6UxguU-41" value="its constant" style="text;html=1;align=center;verticalAlign=middle;resizable=0;points=[];autosize=1;strokeColor=none;fillColor=none;" parent="1" vertex="1">
          <mxGeometry x="480" y="9855" width="80" height="30" as="geometry" />
        </mxCell>
        <mxCell id="pgjIFrwkVdKyfw6UxguU-42" value="" style="shape=link;html=1;rounded=0;" parent="1" edge="1">
          <mxGeometry width="100" relative="1" as="geometry">
            <mxPoint x="53.75" y="9900" as="sourcePoint" />
            <mxPoint x="793.75" y="9900" as="targetPoint" />
          </mxGeometry>
        </mxCell>
        <mxCell id="pgjIFrwkVdKyfw6UxguU-43" value="az1" style="whiteSpace=wrap;html=1;" parent="1" vertex="1">
          <mxGeometry x="135" y="10020" width="120" height="60" as="geometry" />
        </mxCell>
        <mxCell id="pgjIFrwkVdKyfw6UxguU-44" value="az22" style="whiteSpace=wrap;html=1;" parent="1" vertex="1">
          <mxGeometry x="400" y="10010" width="120" height="60" as="geometry" />
        </mxCell>
        <mxCell id="pgjIFrwkVdKyfw6UxguU-45" value="az3" style="whiteSpace=wrap;html=1;" parent="1" vertex="1">
          <mxGeometry x="620" y="10010" width="120" height="60" as="geometry" />
        </mxCell>
        <mxCell id="pgjIFrwkVdKyfw6UxguU-46" value="placement group - associate with autscaling group" style="whiteSpace=wrap;html=1;" parent="1" vertex="1">
          <mxGeometry x="130" y="9930" width="630" height="60" as="geometry" />
        </mxCell>
        <mxCell id="pgjIFrwkVdKyfw6UxguU-48" value="classic load balancer" style="whiteSpace=wrap;html=1;" parent="1" vertex="1">
          <mxGeometry x="90" y="10200" width="120" height="60" as="geometry" />
        </mxCell>
        <mxCell id="pgjIFrwkVdKyfw6UxguU-49" value="network loadbalancer" style="whiteSpace=wrap;html=1;" parent="1" vertex="1">
          <mxGeometry x="305" y="10200" width="120" height="60" as="geometry" />
        </mxCell>
        <mxCell id="pgjIFrwkVdKyfw6UxguU-50" value="application loadbalancer" style="whiteSpace=wrap;html=1;" parent="1" vertex="1">
          <mxGeometry x="515" y="10200" width="120" height="60" as="geometry" />
        </mxCell>
        <mxCell id="mdEsKPgE-E4bRMhlwIs1-1" value="" style="shape=link;html=1;rounded=0;" edge="1" parent="1">
          <mxGeometry width="100" relative="1" as="geometry">
            <mxPoint x="40" y="10320" as="sourcePoint" />
            <mxPoint x="800" y="10320" as="targetPoint" />
          </mxGeometry>
        </mxCell>
        <mxCell id="mdEsKPgE-E4bRMhlwIs1-3" value="IAM" style="text;html=1;align=center;verticalAlign=middle;resizable=0;points=[];autosize=1;strokeColor=none;fillColor=none;" vertex="1" parent="1">
          <mxGeometry x="70" y="10345" width="40" height="30" as="geometry" />
        </mxCell>
        <mxCell id="mdEsKPgE-E4bRMhlwIs1-4" value="AD" style="text;html=1;align=center;verticalAlign=middle;resizable=0;points=[];autosize=1;strokeColor=none;fillColor=none;" vertex="1" parent="1">
          <mxGeometry x="690" y="10345" width="40" height="30" as="geometry" />
        </mxCell>
        <mxCell id="mdEsKPgE-E4bRMhlwIs1-5" value="SAM" style="text;html=1;align=center;verticalAlign=middle;resizable=0;points=[];autosize=1;strokeColor=none;fillColor=none;" vertex="1" parent="1">
          <mxGeometry x="690" y="10375" width="50" height="30" as="geometry" />
        </mxCell>
        <mxCell id="mdEsKPgE-E4bRMhlwIs1-6" value="sso" style="text;html=1;align=center;verticalAlign=middle;resizable=0;points=[];autosize=1;strokeColor=none;fillColor=none;" vertex="1" parent="1">
          <mxGeometry x="695" y="10400" width="40" height="30" as="geometry" />
        </mxCell>
        <mxCell id="mdEsKPgE-E4bRMhlwIs1-7" value="mfa" style="text;html=1;align=center;verticalAlign=middle;resizable=0;points=[];autosize=1;strokeColor=none;fillColor=none;" vertex="1" parent="1">
          <mxGeometry x="695" y="10430" width="40" height="30" as="geometry" />
        </mxCell>
        <mxCell id="mdEsKPgE-E4bRMhlwIs1-8" value="ldap" style="text;html=1;align=center;verticalAlign=middle;resizable=0;points=[];autosize=1;strokeColor=none;fillColor=none;" vertex="1" parent="1">
          <mxGeometry x="695" y="10460" width="50" height="30" as="geometry" />
        </mxCell>
        <mxCell id="mdEsKPgE-E4bRMhlwIs1-9" value="simple" style="text;html=1;align=center;verticalAlign=middle;resizable=0;points=[];autosize=1;strokeColor=none;fillColor=none;" vertex="1" parent="1">
          <mxGeometry x="500" y="10355" width="60" height="30" as="geometry" />
        </mxCell>
        <mxCell id="mdEsKPgE-E4bRMhlwIs1-10" value="token" style="text;html=1;align=center;verticalAlign=middle;resizable=0;points=[];autosize=1;strokeColor=none;fillColor=none;" vertex="1" parent="1">
          <mxGeometry x="505" y="10385" width="50" height="30" as="geometry" />
        </mxCell>
        <mxCell id="mdEsKPgE-E4bRMhlwIs1-11" value="User" style="text;html=1;align=center;verticalAlign=middle;resizable=0;points=[];autosize=1;strokeColor=none;fillColor=none;" vertex="1" parent="1">
          <mxGeometry x="75" y="10365" width="50" height="30" as="geometry" />
        </mxCell>
        <mxCell id="mdEsKPgE-E4bRMhlwIs1-12" value="roles" style="text;html=1;align=center;verticalAlign=middle;resizable=0;points=[];autosize=1;strokeColor=none;fillColor=none;" vertex="1" parent="1">
          <mxGeometry x="145" y="10395" width="50" height="30" as="geometry" />
        </mxCell>
        <mxCell id="mdEsKPgE-E4bRMhlwIs1-13" value="Policy" style="text;html=1;align=center;verticalAlign=middle;resizable=0;points=[];autosize=1;strokeColor=none;fillColor=none;" vertex="1" parent="1">
          <mxGeometry x="80" y="10395" width="60" height="30" as="geometry" />
        </mxCell>
        <mxCell id="mdEsKPgE-E4bRMhlwIs1-14" value="user" style="text;html=1;align=center;verticalAlign=middle;resizable=0;points=[];autosize=1;strokeColor=none;fillColor=none;" vertex="1" parent="1">
          <mxGeometry x="210" y="10375" width="50" height="30" as="geometry" />
        </mxCell>
        <mxCell id="mdEsKPgE-E4bRMhlwIs1-15" value="service" style="text;html=1;align=center;verticalAlign=middle;resizable=0;points=[];autosize=1;strokeColor=none;fillColor=none;" vertex="1" parent="1">
          <mxGeometry x="210" y="10415" width="60" height="30" as="geometry" />
        </mxCell>
        <mxCell id="mdEsKPgE-E4bRMhlwIs1-16" value="usergroups" style="text;html=1;align=center;verticalAlign=middle;resizable=0;points=[];autosize=1;strokeColor=none;fillColor=none;" vertex="1" parent="1">
          <mxGeometry x="5" y="10365" width="80" height="30" as="geometry" />
        </mxCell>
        <mxCell id="mdEsKPgE-E4bRMhlwIs1-28" style="edgeStyle=orthogonalEdgeStyle;rounded=0;orthogonalLoop=1;jettySize=auto;html=1;" edge="1" parent="1" source="mdEsKPgE-E4bRMhlwIs1-17">
          <mxGeometry relative="1" as="geometry">
            <mxPoint x="160" y="10610.028571428571" as="targetPoint" />
          </mxGeometry>
        </mxCell>
        <mxCell id="mdEsKPgE-E4bRMhlwIs1-17" value="role" style="whiteSpace=wrap;html=1;" vertex="1" parent="1">
          <mxGeometry x="230" y="10570" width="120" height="60" as="geometry" />
        </mxCell>
        <mxCell id="mdEsKPgE-E4bRMhlwIs1-25" style="edgeStyle=orthogonalEdgeStyle;rounded=0;orthogonalLoop=1;jettySize=auto;html=1;" edge="1" parent="1" source="mdEsKPgE-E4bRMhlwIs1-18" target="mdEsKPgE-E4bRMhlwIs1-17">
          <mxGeometry relative="1" as="geometry" />
        </mxCell>
        <mxCell id="mdEsKPgE-E4bRMhlwIs1-18" value="ec2" style="whiteSpace=wrap;html=1;" vertex="1" parent="1">
          <mxGeometry x="390" y="10480" width="120" height="60" as="geometry" />
        </mxCell>
        <mxCell id="mdEsKPgE-E4bRMhlwIs1-26" style="edgeStyle=orthogonalEdgeStyle;rounded=0;orthogonalLoop=1;jettySize=auto;html=1;" edge="1" parent="1" source="mdEsKPgE-E4bRMhlwIs1-19" target="mdEsKPgE-E4bRMhlwIs1-17">
          <mxGeometry relative="1" as="geometry" />
        </mxCell>
        <mxCell id="mdEsKPgE-E4bRMhlwIs1-19" value="policy2" style="whiteSpace=wrap;html=1;" vertex="1" parent="1">
          <mxGeometry x="385" y="10570" width="120" height="60" as="geometry" />
        </mxCell>
        <mxCell id="mdEsKPgE-E4bRMhlwIs1-27" style="edgeStyle=orthogonalEdgeStyle;rounded=0;orthogonalLoop=1;jettySize=auto;html=1;entryX=0.348;entryY=1.026;entryDx=0;entryDy=0;entryPerimeter=0;" edge="1" parent="1" source="mdEsKPgE-E4bRMhlwIs1-20" target="mdEsKPgE-E4bRMhlwIs1-17">
          <mxGeometry relative="1" as="geometry" />
        </mxCell>
        <mxCell id="mdEsKPgE-E4bRMhlwIs1-20" value="policy 10" style="whiteSpace=wrap;html=1;" vertex="1" parent="1">
          <mxGeometry x="385" y="10660" width="120" height="60" as="geometry" />
        </mxCell>
        <mxCell id="mdEsKPgE-E4bRMhlwIs1-29" value="" style="ellipse;whiteSpace=wrap;html=1;" vertex="1" parent="1">
          <mxGeometry x="35" y="10570" width="120" height="80" as="geometry" />
        </mxCell>
        <mxCell id="mdEsKPgE-E4bRMhlwIs1-31" value="Actor" style="shape=umlActor;verticalLabelPosition=bottom;verticalAlign=top;html=1;outlineConnect=0;" vertex="1" parent="1">
          <mxGeometry x="50" y="10590" width="30" height="60" as="geometry" />
        </mxCell>
        <mxCell id="mdEsKPgE-E4bRMhlwIs1-32" value="Actor" style="shape=umlActor;verticalLabelPosition=bottom;verticalAlign=top;html=1;outlineConnect=0;" vertex="1" parent="1">
          <mxGeometry x="75" y="10630" width="30" height="60" as="geometry" />
        </mxCell>
        <mxCell id="mdEsKPgE-E4bRMhlwIs1-33" value="Actor" style="shape=umlActor;verticalLabelPosition=bottom;verticalAlign=top;html=1;outlineConnect=0;" vertex="1" parent="1">
          <mxGeometry x="110" y="10620" width="30" height="60" as="geometry" />
        </mxCell>
        <mxCell id="mdEsKPgE-E4bRMhlwIs1-35" value="Actor" style="shape=umlActor;verticalLabelPosition=bottom;verticalAlign=top;html=1;outlineConnect=0;" vertex="1" parent="1">
          <mxGeometry x="155" y="10790" width="30" height="60" as="geometry" />
        </mxCell>
        <mxCell id="mdEsKPgE-E4bRMhlwIs1-36" value="programatic access" style="text;html=1;align=center;verticalAlign=middle;resizable=0;points=[];autosize=1;strokeColor=none;fillColor=none;" vertex="1" parent="1">
          <mxGeometry x="195" y="10795" width="130" height="30" as="geometry" />
        </mxCell>
        <mxCell id="mdEsKPgE-E4bRMhlwIs1-37" value="web access" style="text;html=1;align=center;verticalAlign=middle;resizable=0;points=[];autosize=1;strokeColor=none;fillColor=none;" vertex="1" parent="1">
          <mxGeometry x="205" y="10835" width="90" height="30" as="geometry" />
        </mxCell>
        <mxCell id="mdEsKPgE-E4bRMhlwIs1-38" value="automation purpose" style="text;html=1;align=center;verticalAlign=middle;resizable=0;points=[];autosize=1;strokeColor=none;fillColor=none;" vertex="1" parent="1">
          <mxGeometry x="345" y="10795" width="130" height="30" as="geometry" />
        </mxCell>
        <mxCell id="mdEsKPgE-E4bRMhlwIs1-39" value="aws cli" style="text;html=1;align=center;verticalAlign=middle;resizable=0;points=[];autosize=1;strokeColor=none;fillColor=none;" vertex="1" parent="1">
          <mxGeometry x="490" y="10795" width="60" height="30" as="geometry" />
        </mxCell>
        <mxCell id="mdEsKPgE-E4bRMhlwIs1-40" value="login to the aws console" style="text;html=1;align=center;verticalAlign=middle;resizable=0;points=[];autosize=1;strokeColor=none;fillColor=none;" vertex="1" parent="1">
          <mxGeometry x="330" y="10835" width="150" height="30" as="geometry" />
        </mxCell>
        <mxCell id="mdEsKPgE-E4bRMhlwIs1-41" value="access key secret key" style="whiteSpace=wrap;html=1;" vertex="1" parent="1">
          <mxGeometry x="585" y="10775" width="120" height="60" as="geometry" />
        </mxCell>
        <mxCell id="mdEsKPgE-E4bRMhlwIs1-42" value="email add or username with secret /password" style="whiteSpace=wrap;html=1;" vertex="1" parent="1">
          <mxGeometry x="253.75" y="10865" width="120" height="60" as="geometry" />
        </mxCell>
      </root>
    </mxGraphModel>
  </diagram>
</mxfile>
